<?xml version="1.0" standalone="no"?>
<!DOCTYPE svg PUBLIC "-//W3C//DTD SVG 20010904//EN"
 "http://www.w3.org/TR/2001/REC-SVG-20010904/DTD/svg10.dtd">
<svg version="1.0" xmlns="http://www.w3.org/2000/svg"
 width="232.000000pt" height="232.000000pt" viewBox="0 0 232.000000 232.000000"
 preserveAspectRatio="xMidYMid meet">
<metadata>
Created by potrace 1.11, written by Peter Selinger 2001-2013
</metadata>
<g transform="translate(0.000000,232.000000) scale(0.100000,-0.100000)"
fill="#000000" stroke="none">
<path d="M1276 2308 c-3 -7 -43 -254 -91 -548 -48 -294 -131 -807 -186 -1140
-54 -333 -99 -608 -99 -612 0 -5 33 -8 74 -8 l73 0 47 282 c25 156 109 668
186 1138 77 470 142 865 145 878 5 21 3 22 -70 22 -52 0 -77 -4 -79 -12z"/>
<path d="M492 1373 c-166 -120 -300 -221 -299 -225 4 -15 607 -446 608 -435 3
37 1 209 -3 213 -3 2 -78 53 -167 113 l-162 109 170 117 171 116 0 105 c0 57
-4 104 -8 104 -5 0 -144 -98 -310 -217z"/>
<path d="M1520 1483 l1 -108 164 -110 c90 -60 164 -113 165 -116 0 -3 -74 -55
-165 -115 l-165 -109 0 -113 c0 -107 1 -112 18 -100 319 229 592 433 590 439
-3 8 -594 439 -603 439 -3 0 -5 -48 -5 -107z"/>
</g>
</svg>
