<svg id="Capa_1" enable-background="new 0 0 512 512" height="512" viewBox="0 0 512 512" width="512" xmlns="http://www.w3.org/2000/svg"><path d="m355.378 504.5h-197.694c-5.784 0-10.473-4.689-10.473-10.473v-40.683c0-5.784 4.689-10.473 10.473-10.473h197.694c5.784 0 10.473 4.689 10.473 10.473v40.683c0 5.784-4.689 10.473-10.473 10.473z" fill="#fdb441"/><path d="m365.851 453.34v40.69c0 5.78-4.69 10.47-10.47 10.47h-197.7c-5.78 0-10.47-4.69-10.47-10.47v-10.34h185.4c5.72 0 10.35-4.63 10.35-10.35v-28.25c0-.76-.08-1.5-.24-2.22h12.66c5.78 0 10.47 4.69 10.47 10.47z" fill="#fea613"/><path d="m245.079 289.111-73.054 28.387c-8.867 3.445-8.919 15.973-.082 19.493l72.889 29.029c7.512 2.992 15.885 2.992 23.398 0l72.889-29.029c8.837-3.52 8.785-16.047-.082-19.493l-73.054-28.387c-7.366-2.863-15.537-2.863-22.904 0z" fill="#e2dee2"/><path d="m341.12 336.99-72.89 29.03c-7.51 2.99-15.89 2.99-23.4 0l-9.79-3.9c2.87-.15 5.71-.77 8.42-1.86l61.97-24.68c7.51-2.99 7.46-13.64-.07-16.57l-62.11-24.13c-2.72-1.06-5.56-1.65-8.42-1.79l10.25-3.98c7.37-2.86 15.54-2.86 22.9 0l73.06 28.39c8.86 3.44 8.92 15.97.08 19.49z" fill="#cbc4cc"/><path d="m355.378 69.13h-197.694c-5.784 0-10.473-4.689-10.473-10.473v-40.684c0-5.784 4.689-10.473 10.473-10.473h197.694c5.784 0 10.473 4.689 10.473 10.473v40.683c0 5.785-4.689 10.474-10.473 10.474z" fill="#fdb441"/><path d="m355.378 204.531h-197.694c-5.784 0-10.473-4.689-10.473-10.473v-40.683c0-5.784 4.689-10.473 10.473-10.473h197.694c5.784 0 10.473 4.689 10.473 10.473v40.683c0 5.784-4.689 10.473-10.473 10.473z" fill="#c0d6f2"/><path d="m355.378 69.13h-197.694c-5.784 0-10.473-4.689-10.473-10.473v-40.684c0-5.784 4.689-10.473 10.473-10.473h197.694c5.784 0 10.473 4.689 10.473 10.473v40.683c0 5.785-4.689 10.474-10.473 10.474z" fill="#c0d6f2"/><path d="m365.85 153.37v40.69c0 5.78-4.69 10.47-10.47 10.47h-197.7c-5.78 0-10.47-4.69-10.47-10.47v-10.34h185.4c5.72 0 10.35-4.63 10.35-10.35v-28.25c0-.76-.08-1.5-.24-2.22h12.66c5.78 0 10.47 4.69 10.47 10.47z" fill="#b2caec"/><path d="m365.851 17.97v40.69c0 5.78-4.69 10.47-10.47 10.47h-197.7c-5.78 0-10.47-4.69-10.47-10.47v-10.34h185.4c5.72 0 10.35-4.63 10.35-10.35v-28.25c0-.76-.08-1.5-.24-2.22h12.66c5.78 0 10.47 4.69 10.47 10.47z" fill="#b2caec"/><path d="m256.531 221.951c-4.142 0-7.5 3.358-7.5 7.5v12.794l-4.64-4.781c-2.885-2.972-7.633-3.043-10.605-.158s-3.043 7.633-.158 10.605l17.522 18.053c1.413 1.456 3.354 2.276 5.382 2.276h.058c2.047-.016 4-.868 5.404-2.36l16.992-18.053c2.839-3.016 2.694-7.763-.321-10.602-3.016-2.838-7.761-2.696-10.603.321l-4.029 4.281v-12.378c-.002-4.14-3.36-7.498-7.502-7.498z"/><path d="m355.378 435.37h-197.694c-9.911 0-17.973 8.063-17.973 17.974v40.683c0 9.911 8.063 17.974 17.973 17.974h54.648c4.142 0 7.5-3.358 7.5-7.5s-3.358-7.5-7.5-7.5h-54.648c-1.639 0-2.973-1.334-2.973-2.974v-40.683c0-1.64 1.334-2.974 2.973-2.974h197.694c1.64 0 2.974 1.334 2.974 2.974v40.683c0 1.64-1.334 2.974-2.974 2.974h-108.294c-4.142 0-7.5 3.358-7.5 7.5s3.358 7.5 7.5 7.5h108.294c9.911 0 17.974-8.063 17.974-17.974v-40.683c0-9.911-8.063-17.974-17.974-17.974z"/><path d="m355.378 135.401h-145.628c-4.142 0-7.5 3.358-7.5 7.5s3.358 7.5 7.5 7.5h145.628c1.64 0 2.974 1.334 2.974 2.973v40.684c0 1.639-1.334 2.973-2.974 2.973h-197.694c-1.639 0-2.973-1.334-2.973-2.973v-40.684c0-1.639 1.334-2.973 2.973-2.973h17.316c4.142 0 7.5-3.358 7.5-7.5s-3.358-7.5-7.5-7.5h-17.315c-9.911 0-17.973 8.063-17.973 17.973v40.684c0 9.911 8.063 17.973 17.973 17.973h197.694c9.911 0 17.974-8.063 17.974-17.973v-40.684c-.001-9.911-8.064-17.973-17.975-17.973z"/><path d="m157.845 327.184c-.031 7.438 4.414 14.021 11.323 16.773l72.889 29.029c4.667 1.858 9.57 2.788 14.474 2.788s9.807-.929 14.474-2.788l72.888-29.029c6.91-2.751 11.355-9.335 11.324-16.773s-4.531-13.984-11.464-16.678l-27.43-10.659c-3.865-1.5-8.208.414-9.708 4.274-1.5 3.861.414 8.207 4.274 9.707l27.431 10.659c1.643.639 1.894 2.003 1.896 2.759s-.236 2.123-1.874 2.775l-72.889 29.029c-5.754 2.292-12.092 2.292-17.847 0l-72.889-29.029c-1.637-.652-1.876-2.019-1.873-2.775s.254-2.121 1.896-2.759l73.054-28.387c5.633-2.188 11.837-2.188 17.47 0l13.399 5.207c3.865 1.502 8.208-.414 9.708-4.274s-.414-8.207-4.274-9.707l-13.399-5.207c-9.136-3.551-19.2-3.551-28.336 0l-73.054 28.387c-6.931 2.694-11.431 9.241-11.463 16.678z"/><path d="m256.531 80.709c-4.142 0-7.5 3.358-7.5 7.5v12.794l-4.64-4.781c-2.885-2.972-7.633-3.043-10.605-.158s-3.043 7.633-.158 10.605l17.522 18.054c1.413 1.456 3.354 2.276 5.382 2.276h.058c2.048-.016 4-.869 5.404-2.36l16.992-18.054c2.839-3.016 2.694-7.763-.321-10.602-3.016-2.838-7.761-2.695-10.603.321l-4.029 4.281v-12.376c-.002-4.142-3.36-7.5-7.502-7.5z"/><path d="m425.53 320.169h-36.253c-4.143 0-7.5 3.358-7.5 7.5s3.357 7.5 7.5 7.5h36.253c1.64 0 2.974 1.334 2.974 2.974v125.068c0 1.64-1.334 2.974-2.974 2.974h-18.484l4.508-4.375c2.973-2.885 3.043-7.633.158-10.605s-7.633-3.043-10.605-.158l-18.054 17.522c-1.47 1.426-2.292 3.392-2.276 5.439s.868 4 2.359 5.404l18.054 16.992c1.448 1.363 3.296 2.039 5.14 2.039 1.995 0 3.986-.792 5.463-2.36 2.839-3.016 2.694-7.763-.321-10.602l-4.564-4.295h18.623c9.911 0 17.974-8.063 17.974-17.974v-125.069c-.002-9.911-8.064-17.974-17.975-17.974z"/><path d="m100.288 202.697c1.471 1.515 3.425 2.276 5.382 2.276 1.882 0 3.766-.704 5.223-2.118l18.053-17.522c1.47-1.426 2.292-3.392 2.276-5.439-.016-2.048-.869-4-2.36-5.404l-18.053-16.992c-3.017-2.839-7.763-2.696-10.602.321-2.839 3.016-2.695 7.763.321 10.602l4.564 4.296h-18.622c-9.911 0-17.974 8.063-17.974 17.973v125.068c0 9.911 8.063 17.974 17.974 17.974h36.253c4.142 0 7.5-3.358 7.5-7.5s-3.358-7.5-7.5-7.5h-36.253c-1.64 0-2.974-1.334-2.974-2.974v-125.068c0-1.639 1.334-2.973 2.974-2.973h18.484l-4.508 4.375c-2.972 2.885-3.042 7.633-.158 10.605z"/><path d="m355.378 0h-197.694c-9.911 0-17.973 8.063-17.973 17.974v40.683c0 9.911 8.063 17.974 17.973 17.974h197.694c9.911 0 17.974-8.063 17.974-17.974v-40.683c0-9.911-8.063-17.974-17.974-17.974zm2.974 58.657c0 1.64-1.334 2.974-2.974 2.974h-197.694c-1.639 0-2.973-1.334-2.973-2.974v-40.683c0-1.64 1.334-2.974 2.973-2.974h197.694c1.64 0 2.974 1.334 2.974 2.974z"/></svg>