<svg height="512" width="512" xmlns="http://www.w3.org/2000/svg"><path d="M355.378 504.5H157.684c-5.784 0-10.473-4.689-10.473-10.473v-40.683c0-5.784 4.689-10.473 10.473-10.473h197.694c5.784 0 10.473 4.689 10.473 10.473v40.683c0 5.784-4.689 10.473-10.473 10.473z" fill="#fdb441"/><path d="M365.851 453.34v40.69c0 5.78-4.69 10.47-10.47 10.47h-197.7c-5.78 0-10.47-4.69-10.47-10.47v-10.34h185.4c5.72 0 10.35-4.63 10.35-10.35v-28.25c0-.76-.08-1.5-.24-2.22h12.66c5.78 0 10.47 4.69 10.47 10.47z" fill="#fea613"/><path d="M245.079 289.111l-73.054 28.387c-8.867 3.445-8.919 15.973-.082 19.493l72.889 29.029a31.618 31.618 0 0023.398 0l72.889-29.029c8.837-3.52 8.785-16.047-.082-19.493l-73.054-28.387a31.612 31.612 0 00-22.904 0z" fill="#e2dee2"/><path d="M341.12 336.99l-72.89 29.03a31.643 31.643 0 01-23.4 0l-9.79-3.9c2.87-.15 5.71-.77 8.42-1.86l61.97-24.68c7.51-2.99 7.46-13.64-.07-16.57l-62.11-24.13a26.761 26.761 0 00-8.42-1.79l10.25-3.98a31.633 31.633 0 0122.9 0l73.06 28.39c8.86 3.44 8.92 15.97.08 19.49z" fill="#cbc4cc"/><path d="M355.378 69.13H157.684c-5.784 0-10.473-4.689-10.473-10.473V17.973c0-5.784 4.689-10.473 10.473-10.473h197.694c5.784 0 10.473 4.689 10.473 10.473v40.683c0 5.785-4.689 10.474-10.473 10.474z" fill="#fdb441"/><path d="M355.378 204.531H157.684c-5.784 0-10.473-4.689-10.473-10.473v-40.683c0-5.784 4.689-10.473 10.473-10.473h197.694c5.784 0 10.473 4.689 10.473 10.473v40.683c0 5.784-4.689 10.473-10.473 10.473zm0-135.401H157.684c-5.784 0-10.473-4.689-10.473-10.473V17.973c0-5.784 4.689-10.473 10.473-10.473h197.694c5.784 0 10.473 4.689 10.473 10.473v40.683c0 5.785-4.689 10.474-10.473 10.474z" fill="#c0d6f2"/><path d="M365.85 153.37v40.69c0 5.78-4.69 10.47-10.47 10.47h-197.7c-5.78 0-10.47-4.69-10.47-10.47v-10.34h185.4c5.72 0 10.35-4.63 10.35-10.35v-28.25c0-.76-.08-1.5-.24-2.22h12.66c5.78 0 10.47 4.69 10.47 10.47zm.001-135.4v40.69c0 5.78-4.69 10.47-10.47 10.47h-197.7c-5.78 0-10.47-4.69-10.47-10.47V48.32h185.4c5.72 0 10.35-4.63 10.35-10.35V9.72c0-.76-.08-1.5-.24-2.22h12.66c5.78 0 10.47 4.69 10.47 10.47z" fill="#b2caec"/><path d="M256.531 221.951a7.5 7.5 0 00-7.5 7.5v12.794l-4.64-4.781a7.5 7.5 0 10-10.763 10.447l17.522 18.053a7.498 7.498 0 005.382 2.276h.058c2.047-.016 4-.868 5.404-2.36l16.992-18.053a7.501 7.501 0 00-10.924-10.281l-4.029 4.281v-12.378a7.503 7.503 0 00-7.502-7.498zm98.847 213.419H157.684c-9.911 0-17.973 8.063-17.973 17.974v40.683c0 9.911 8.063 17.974 17.973 17.974h54.648a7.5 7.5 0 000-15h-54.648a2.977 2.977 0 01-2.973-2.974v-40.683a2.977 2.977 0 012.973-2.974h197.694a2.977 2.977 0 012.974 2.974v40.683a2.977 2.977 0 01-2.974 2.974H247.084a7.5 7.5 0 000 15h108.294c9.911 0 17.974-8.063 17.974-17.974v-40.683c0-9.911-8.063-17.974-17.974-17.974zm0-299.969H209.75a7.5 7.5 0 000 15h145.628a2.977 2.977 0 012.974 2.973v40.684a2.977 2.977 0 01-2.974 2.973H157.684a2.977 2.977 0 01-2.973-2.973v-40.684a2.977 2.977 0 012.973-2.973H175a7.5 7.5 0 000-15h-17.315c-9.911 0-17.973 8.063-17.973 17.973v40.684c0 9.911 8.063 17.973 17.973 17.973h197.694c9.911 0 17.974-8.063 17.974-17.973v-40.684c-.001-9.911-8.064-17.973-17.975-17.973zM157.845 327.184c-.031 7.438 4.414 14.021 11.323 16.773l72.889 29.029c4.667 1.858 9.57 2.788 14.474 2.788s9.807-.929 14.474-2.788l72.888-29.029c6.91-2.751 11.355-9.335 11.324-16.773s-4.531-13.984-11.464-16.678l-27.43-10.659a7.5 7.5 0 10-5.434 13.981l27.431 10.659c1.643.639 1.894 2.003 1.896 2.759s-.236 2.123-1.874 2.775l-72.889 29.029a24.02 24.02 0 01-17.847 0l-72.889-29.029c-1.637-.652-1.876-2.019-1.873-2.775s.254-2.121 1.896-2.759l73.054-28.387a24.069 24.069 0 0117.47 0l13.399 5.207a7.5 7.5 0 005.434-13.981l-13.399-5.207a39.017 39.017 0 00-28.336 0l-73.054 28.387c-6.931 2.694-11.431 9.241-11.463 16.678zm98.686-246.475a7.5 7.5 0 00-7.5 7.5v12.794l-4.64-4.781a7.5 7.5 0 10-10.763 10.447l17.522 18.054a7.498 7.498 0 005.382 2.276h.058c2.048-.016 4-.869 5.404-2.36l16.992-18.054a7.501 7.501 0 00-10.924-10.281l-4.029 4.281V88.209a7.503 7.503 0 00-7.502-7.5zm168.999 239.46h-36.253c-4.143 0-7.5 3.358-7.5 7.5s3.357 7.5 7.5 7.5h36.253a2.977 2.977 0 012.974 2.974v125.068a2.977 2.977 0 01-2.974 2.974h-18.484l4.508-4.375a7.5 7.5 0 10-10.447-10.763l-18.054 17.522a7.497 7.497 0 00.083 10.843l18.054 16.992a7.476 7.476 0 005.14 2.039 7.501 7.501 0 005.142-12.962l-4.564-4.295h18.623c9.911 0 17.974-8.063 17.974-17.974V338.143c-.002-9.911-8.064-17.974-17.975-17.974zM100.288 202.697a7.478 7.478 0 005.382 2.276 7.476 7.476 0 005.223-2.118l18.053-17.522a7.497 7.497 0 00-.084-10.843l-18.053-16.992a7.5 7.5 0 00-10.281 10.923l4.564 4.296H86.47c-9.911 0-17.974 8.063-17.974 17.973v125.068c0 9.911 8.063 17.974 17.974 17.974h36.253a7.5 7.5 0 000-15H86.47a2.977 2.977 0 01-2.974-2.974V190.69a2.977 2.977 0 012.974-2.973h18.484l-4.508 4.375a7.5 7.5 0 00-.158 10.605zM355.378 0H157.684c-9.911 0-17.973 8.063-17.973 17.974v40.683c0 9.911 8.063 17.974 17.973 17.974h197.694c9.911 0 17.974-8.063 17.974-17.974V17.974C373.352 8.063 365.289 0 355.378 0zm2.974 58.657a2.977 2.977 0 01-2.974 2.974H157.684a2.977 2.977 0 01-2.973-2.974V17.974A2.977 2.977 0 01157.684 15h197.694a2.977 2.977 0 012.974 2.974z"/></svg>