<svg height="512" viewBox="0 0 511.949 511.949" width="512" xmlns="http://www.w3.org/2000/svg"><path d="M75.996 331.972l357.597 6.182c37.106.642 68.841-27.598 70.75-64.326a79.81 79.81 0 00.095-2.734c.748-43.278-34.048-78.973-77.718-79.728-.03-.001-.059.001-.089.001.071-1.156.129-2.315.149-3.485.748-43.278-34.048-78.973-77.719-79.728-13.605-.235-26.465 2.951-37.749 8.755-17.662-39.4-56.25-67.673-102.012-70.69-68.034-4.487-126.863 48.743-128.401 116.295-.18 7.887.426 15.608 1.729 23.098-41.24 1.996-74.399 35.382-75.116 76.891a77.982 77.982 0 000 2.736c.637 36.772 31.378 66.091 68.484 66.733z" fill="#ddebfd"/><path d="M426.676 192.73h-.089c.084-1.155.155-2.314.188-3.483 1.227-43.267-33.172-79.345-76.832-80.583-13.602-.386-26.496 2.658-37.843 8.336-17.225-39.592-55.498-68.291-101.224-71.814-35.577-2.741-68.785 10.374-92.705 33.162a143.11 143.11 0 012.771 7.208c18.057-8.317 38.405-12.337 59.604-10.704 34.578 2.664 64.894 19.725 85.069 45.006 10.553 13.224 26.989 20.348 43.831 18.738a73.362 73.362 0 0110.167-.266c40.458 1.758 59.744 29.094 68.838 52.122 6.717 17.009 19.611 31.016 36.474 38.093 29.132 12.227 49.195 41.212 48.252 74.434a79.633 79.633 0 01-.125 2.733 65.84 65.84 0 01-7.361 26.377c21.037-10.56 36.13-31.288 37.691-56.043.057-.907.099-1.818.125-2.733 1.227-43.266-33.172-79.345-76.831-80.583z" fill="#bed9fd"/><circle cx="249.382" cy="333.172" fill="#fdfcfc" r="132.817"/><path d="M251.677 200.375c-5.87-.102-11.657.184-17.338.824 67.286 7.547 119.033 65.202 117.839 134.269-1.166 67.471-52.45 122.316-117.755 129.677 4.165.467 8.387.75 12.662.824 73.342 1.268 133.825-57.159 135.093-130.501s-57.159-133.825-130.501-135.093z" fill="#f1f1f1"/><ellipse cx="249.439" cy="295.059" fill="#ffeed2" rx="33.245" ry="31.323" transform="rotate(-89.03 249.358 295.012)"/><ellipse cx="249.439" cy="351.821" fill="#ff8086" rx="52.706" ry="49.659" transform="rotate(-89.03 249.359 351.762)"/><path d="M250.35 299.123a46.99 46.99 0 00-15.807 2.454c20.372 6.849 34.96 27.249 34.548 51.103-.402 23.255-14.941 42.732-34.755 49.386a46.964 46.964 0 0014.193 2.454c27.422.474 50.06-22.736 50.563-51.84.501-29.105-21.321-53.083-48.742-53.557z" fill="#e5646e"/><path d="M434.263 184.307c-.542-21.573-9.097-41.859-24.316-57.472-16.068-16.484-37.645-25.782-60.757-26.182-11.786-.191-23.501 1.99-34.329 6.382-20.527-39.397-60.131-65.339-105.068-68.302-35.563-2.339-70.854 10.44-96.84 35.074a7.5 7.5 0 1010.321 10.886c22.959-21.766 54.133-33.063 85.533-30.992 41.919 2.764 78.574 28.158 95.661 66.274a7.5 7.5 0 0010.274 3.602c10.478-5.39 22.28-8.135 34.188-7.925 19.131.33 36.986 8.021 50.275 21.654 13.272 13.615 20.4 31.53 20.073 50.449a72.091 72.091 0 01-.136 3.155 7.502 7.502 0 007.362 7.955l.162.001c39.429.724 70.945 33.051 70.271 72.1a68.003 68.003 0 01-.086 2.473c-.815 15.694-7.815 30.255-19.713 41-11.886 10.736-27.35 16.489-43.417 16.216l-44.072-.762c-1.712-74.776-62.395-135.712-137.843-137.017-37.513-.624-72.959 13.337-99.915 39.377-25.584 24.715-40.571 57.483-42.585 92.794l-33.181-.574c-16.112-.278-31.323-6.567-42.831-17.707-11.519-11.15-18.012-25.944-18.284-41.656a68.178 68.178 0 010-2.477c.643-37.174 30.503-67.715 67.979-69.529a7.5 7.5 0 007.026-8.777 111.752 111.752 0 01-1.619-21.642c.456-20.033 6.407-39.596 17.208-56.574 2.224-3.495 1.192-8.13-2.303-10.354s-8.129-1.193-10.354 2.302c-12.27 19.287-19.029 41.515-19.548 64.284-.126 5.518.112 11.061.709 16.557C32.66 184.841.742 220.06.01 262.375a87.889 87.889 0 000 2.994c.342 19.713 8.456 38.243 22.849 52.175 14.252 13.795 33.076 21.583 53.005 21.928l33.367.577c1.056 21.607 7.082 42.721 17.631 61.567a141.136 141.136 0 0049.062 51.136 7.501 7.501 0 007.863-12.774 126.099 126.099 0 01-43.836-45.689c-10.766-19.23-16.253-41.112-15.869-63.282.578-33.468 14.155-64.707 38.231-87.964 24.074-23.257 55.813-35.76 89.233-35.167 69.09 1.194 124.326 58.374 123.132 127.464-1.195 69.089-58.359 124.331-127.464 123.132-12.75-.221-25.291-2.344-37.273-6.312a7.5 7.5 0 10-4.715 14.24c13.423 4.444 27.462 6.823 41.729 7.07.826.014 1.639.021 2.462.021 73.133-.007 133.785-56.455 139.784-128.601l44.261.765c.461.008.919.012 1.379.012 19.429 0 37.974-7.107 52.353-20.094 14.865-13.427 23.615-31.664 24.638-51.348.053-.996.087-1.997.104-3 .776-44.866-33.463-82.407-77.673-86.918z"/><path d="M190.923 349.789l-22.435 15.683a7.505 7.505 0 00-3.052 4.647l-4.724 23.146a7.5 7.5 0 007.357 9.001 7.503 7.503 0 007.341-6.002l4.125-20.213 14.331-10.018c5.953 25.985 27.991 45.527 54.531 45.986.322.005.644.008.966.008 14.992 0 29.132-6.049 39.909-17.099 7.563-7.754 12.833-17.339 15.444-27.828l12.804 8.95 4.125 20.213a7.503 7.503 0 008.849 5.849 7.5 7.5 0 005.849-8.848l-4.724-23.146a7.498 7.498 0 00-3.052-4.647l-21.996-15.376a62.515 62.515 0 00-3.402-18.878l24.76-14.839a7.499 7.499 0 003.493-4.934l3.84-18.816a7.5 7.5 0 00-5.849-8.848 7.498 7.498 0 00-8.849 5.849l-3.18 15.58-20.838 12.491a59.645 59.645 0 00-9.796-11.518 42.685 42.685 0 001.506-10.453c.389-22.463-16.709-41.039-38.112-41.41-21.451-.365-39.133 17.605-39.521 40.066a42.54 42.54 0 001.479 11.927 59.952 59.952 0 00-2.497 2.401 60.224 60.224 0 00-6.704 8.235l-19.587-11.739-3.18-15.58c-.828-4.059-4.793-6.674-8.849-5.849a7.5 7.5 0 00-5.849 8.848l3.84 18.816a7.501 7.501 0 003.493 4.934l23.286 13.956c-2.149 5.911-3.399 12.196-3.694 18.671-.496.206-.98.463-1.438.784zm16.363 1.303c.127-7.325 1.871-14.344 5.025-20.612l.023-.046a45.293 45.293 0 018.009-11.246c5.831-5.978 12.97-9.957 20.685-11.647v88.589c-19.539-4.207-34.124-22.914-33.742-45.038zm71.249 33.363c-6.287 6.445-14.098 10.574-22.508 12.003v-89.295c20.447 3.402 35.959 22.58 35.565 45.387-.21 12.157-4.847 23.488-13.057 31.905zm-52.915-89.808c.246-14.194 11.161-25.577 24.264-25.329 13.134.227 23.619 11.959 23.374 26.152-.009.52-.044 1.037-.081 1.553-6.93-3.333-14.601-5.259-22.697-5.399a54.546 54.546 0 00-24.791 5.447 28.316 28.316 0 01-.069-2.424z"/></svg>