<svg id="Capa_1" enable-background="new 0 0 511.949 511.949" height="512" viewBox="0 0 511.949 511.949" width="512" xmlns="http://www.w3.org/2000/svg"><g><g><g><path d="m75.996 331.972 357.597 6.182c37.106.642 68.841-27.598 70.75-64.326.047-.907.079-1.819.095-2.734.748-43.278-34.048-78.973-77.718-79.728-.03-.001-.059.001-.089.001.071-1.156.129-2.315.149-3.485.748-43.278-34.048-78.973-77.719-79.728-13.605-.235-26.465 2.951-37.749 8.755-17.662-39.4-56.25-67.673-102.012-70.69-68.034-4.487-126.863 48.743-128.401 116.295-.18 7.887.426 15.608 1.729 23.098-41.24 1.996-74.399 35.382-75.116 76.891-.016.916-.016 1.827 0 2.736.637 36.772 31.378 66.091 68.484 66.733z" fill="#ddebfd"/></g></g><g><g><path d="m426.676 192.73c-.03-.001-.059.001-.089 0 .084-1.155.155-2.314.188-3.483 1.227-43.267-33.172-79.345-76.832-80.583-13.602-.386-26.496 2.658-37.843 8.336-17.225-39.592-55.498-68.291-101.224-71.814-35.577-2.741-68.785 10.374-92.705 33.162.995 2.376 1.906 4.783 2.771 7.208 18.057-8.317 38.405-12.337 59.604-10.704 34.578 2.664 64.894 19.725 85.069 45.006 10.553 13.224 26.989 20.348 43.831 18.738 3.335-.319 6.729-.415 10.167-.266 40.458 1.758 59.744 29.094 68.838 52.122 6.717 17.009 19.611 31.016 36.474 38.093 29.132 12.227 49.195 41.212 48.252 74.434-.026.915-.068 1.826-.125 2.733-.599 9.503-3.205 18.406-7.361 26.377 21.037-10.56 36.13-31.288 37.691-56.043.057-.907.099-1.818.125-2.733 1.227-43.266-33.172-79.345-76.831-80.583z" fill="#bed9fd"/></g></g><g><g><circle cx="249.382" cy="333.172" fill="#fdfcfc" r="132.817"/></g></g><g><g><path d="m251.677 200.375c-5.87-.102-11.657.184-17.338.824 67.286 7.547 119.033 65.202 117.839 134.269-1.166 67.471-52.45 122.316-117.755 129.677 4.165.467 8.387.75 12.662.824 73.342 1.268 133.825-57.159 135.093-130.501s-57.159-133.825-130.501-135.093z" fill="#f1f1f1"/></g></g><g><g><ellipse cx="249.439" cy="295.059" fill="#ffeed2" rx="33.245" ry="31.323" transform="matrix(.017 -1 1 .017 -49.893 539.354)"/></g></g><g><g><ellipse cx="249.439" cy="351.821" fill="#ff8086" rx="52.706" ry="49.659" transform="matrix(.017 -1 1 .017 -106.642 595.141)"/></g></g><g><g><path d="m250.35 299.123c-5.512-.095-10.824.781-15.807 2.454 20.372 6.849 34.96 27.249 34.548 51.103-.402 23.255-14.941 42.732-34.755 49.386 4.485 1.508 9.245 2.369 14.193 2.454 27.422.474 50.06-22.736 50.563-51.84.501-29.105-21.321-53.083-48.742-53.557z" fill="#e5646e"/></g></g><g><path d="m434.263 184.307c-.542-21.573-9.097-41.859-24.316-57.472-16.068-16.484-37.645-25.782-60.757-26.182-11.786-.191-23.501 1.99-34.329 6.382-20.527-39.397-60.131-65.339-105.068-68.302-35.563-2.339-70.854 10.44-96.84 35.074-3.006 2.85-3.133 7.597-.283 10.603 2.852 3.007 7.598 3.132 10.604.283 22.959-21.766 54.133-33.063 85.533-30.992 41.919 2.764 78.574 28.158 95.661 66.274.842 1.879 2.42 3.329 4.363 4.01 1.941.681 4.08.534 5.911-.408 10.478-5.39 22.28-8.135 34.188-7.925 19.131.33 36.986 8.021 50.275 21.654 13.272 13.615 20.4 31.53 20.073 50.449-.019 1.13-.082 2.28-.136 3.155-.124 2.043.592 4.048 1.982 5.55 1.391 1.502 3.334 2.371 5.38 2.405.047 0 .1.001.162.001 39.429.724 70.945 33.051 70.271 72.1-.014.826-.042 1.648-.086 2.473-.815 15.694-7.815 30.255-19.713 41-11.886 10.736-27.35 16.489-43.417 16.216l-44.072-.762c-1.712-74.776-62.395-135.712-137.843-137.017-37.513-.624-72.959 13.337-99.915 39.377-25.584 24.715-40.571 57.483-42.585 92.794l-33.181-.574c-16.112-.278-31.323-6.567-42.831-17.707-11.519-11.15-18.012-25.944-18.284-41.656-.015-.823-.015-1.649 0-2.477.643-37.174 30.503-67.715 67.979-69.529 2.148-.104 4.148-1.125 5.492-2.804 1.345-1.679 1.903-3.854 1.534-5.973-1.239-7.126-1.784-14.407-1.619-21.642.456-20.033 6.407-39.596 17.208-56.574 2.224-3.495 1.192-8.13-2.303-10.354s-8.129-1.193-10.354 2.302c-12.27 19.287-19.029 41.515-19.548 64.284-.126 5.518.112 11.061.709 16.557-41.448 5.941-73.366 41.16-74.098 83.475-.017 1.001-.017 1.999 0 2.994.342 19.713 8.456 38.243 22.849 52.175 14.252 13.795 33.076 21.583 53.005 21.928l33.367.577c1.056 21.607 7.082 42.721 17.631 61.567 11.698 20.898 28.664 38.581 49.062 51.136 3.527 2.169 8.147 1.072 10.318-2.456 2.172-3.527 1.072-8.147-2.455-10.318-18.226-11.218-33.384-27.017-43.836-45.689-10.766-19.23-16.253-41.112-15.869-63.282.578-33.468 14.155-64.707 38.231-87.964 24.074-23.257 55.813-35.76 89.233-35.167 69.09 1.194 124.326 58.374 123.132 127.464-1.195 69.089-58.359 124.331-127.464 123.132-12.75-.221-25.291-2.344-37.273-6.312-3.932-1.303-8.176.831-9.478 4.762-1.302 3.932.83 8.175 4.763 9.478 13.423 4.444 27.462 6.823 41.729 7.07.826.014 1.639.021 2.462.021 73.133-.007 133.785-56.455 139.784-128.601l44.261.765c.461.008.919.012 1.379.012 19.429 0 37.974-7.107 52.353-20.094 14.865-13.427 23.615-31.664 24.638-51.348.053-.996.087-1.997.104-3 .776-44.866-33.463-82.407-77.673-86.918z"/><path d="m190.923 349.789-22.435 15.683c-1.575 1.101-2.667 2.765-3.052 4.647l-4.724 23.146c-.828 4.058 1.79 8.02 5.849 8.848.507.103 1.011.153 1.508.153 3.49 0 6.615-2.449 7.341-6.002l4.125-20.213 14.331-10.018c5.953 25.985 27.991 45.527 54.531 45.986.322.005.644.008.966.008 14.992 0 29.132-6.049 39.909-17.099 7.563-7.754 12.833-17.339 15.444-27.828l12.804 8.95 4.125 20.213c.726 3.553 3.851 6.002 7.341 6.002.497 0 1.002-.05 1.508-.153 4.059-.829 6.677-4.79 5.849-8.848l-4.724-23.146c-.385-1.883-1.476-3.546-3.052-4.647l-21.996-15.376c-.165-6.607-1.355-12.954-3.402-18.878l24.76-14.839c1.805-1.081 3.072-2.872 3.493-4.934l3.84-18.816c.828-4.059-1.79-8.02-5.849-8.848-4.067-.826-8.021 1.79-8.849 5.849l-3.18 15.58-20.838 12.491c-2.789-4.265-6.079-8.142-9.796-11.518.921-3.39 1.444-6.894 1.506-10.453.389-22.463-16.709-41.039-38.112-41.41-21.451-.365-39.133 17.605-39.521 40.066-.071 4.059.428 8.063 1.479 11.927-.849.775-1.685 1.569-2.497 2.401-2.492 2.555-4.722 5.316-6.704 8.235l-19.587-11.739-3.18-15.58c-.828-4.059-4.793-6.674-8.849-5.849-4.059.828-6.677 4.789-5.849 8.848l3.84 18.816c.421 2.062 1.688 3.852 3.493 4.934l23.286 13.956c-2.149 5.911-3.399 12.196-3.694 18.671-.496.206-.98.463-1.438.784zm16.363 1.303c.127-7.325 1.871-14.344 5.025-20.612.007-.015.015-.03.023-.046 2.077-4.117 4.758-7.913 8.009-11.246 5.831-5.978 12.97-9.957 20.685-11.647v88.589c-19.539-4.207-34.124-22.914-33.742-45.038zm71.249 33.363c-6.287 6.445-14.098 10.574-22.508 12.003v-89.295c20.447 3.402 35.959 22.58 35.565 45.387-.21 12.157-4.847 23.488-13.057 31.905zm-52.915-89.808c.246-14.194 11.161-25.577 24.264-25.329 13.134.227 23.619 11.959 23.374 26.152-.009.52-.044 1.037-.081 1.553-6.93-3.333-14.601-5.259-22.697-5.399-.322-.005-.644-.008-.966-.008-8.351 0-16.436 1.882-23.825 5.455-.055-.803-.083-1.611-.069-2.424z"/></g></g></svg>