<svg xmlns="http://www.w3.org/2000/svg" width="512" height="512"><path d="M412.327 134.158V384.62a5.702 5.702 0 01-5.706 5.705H105.379a5.702 5.702 0 01-5.705-5.705V134.158c0-6.896 5.588-12.483 12.473-12.483h287.698c6.884 0 12.482 5.587 12.482 12.483z" fill="#e2fffe"/><path d="M412.327 134.158v49.655H99.673v-49.655c0-6.896 5.588-12.483 12.473-12.483h287.698c6.885 0 12.483 5.587 12.483 12.483z" fill="#b0d1cf"/><path d="M412.322 168.801H99.673v-34.645c0-6.892 5.587-12.48 12.48-12.48h287.689c6.892 0 12.48 5.587 12.48 12.48v34.645z" fill="#5089dd"/><path d="M446.871 82.255h-29.85a9.041 9.041 0 01-9.041-9.041v-29.85a9.041 9.041 0 019.041-9.041h29.85a9.041 9.041 0 019.041 9.041v29.85a9.041 9.041 0 01-9.041 9.041zm-381.742 0h29.85a9.041 9.041 0 009.041-9.041v-29.85a9.041 9.041 0 00-9.041-9.041h-29.85a9.041 9.041 0 00-9.041 9.041v29.85a9.041 9.041 0 009.041 9.041z" fill="#ff433e"/><path d="M232.034 16.541v29.85a9.041 9.041 0 009.041 9.041h29.85a9.041 9.041 0 009.041-9.041v-29.85a9.041 9.041 0 00-9.041-9.041h-29.85a9.041 9.041 0 00-9.041 9.041z" fill="#14c4bb"/><path d="M65.129 429.745h29.85a9.041 9.041 0 019.041 9.041v29.85a9.041 9.041 0 01-9.041 9.041h-29.85a9.041 9.041 0 01-9.041-9.041v-29.85a9.041 9.041 0 019.041-9.041zm381.742 0h-29.85a9.041 9.041 0 00-9.041 9.041v29.85a9.041 9.041 0 009.041 9.041h29.85a9.041 9.041 0 009.041-9.041v-29.85a9.041 9.041 0 00-9.041-9.041z" fill="#ff433e"/><path d="M279.966 495.459v-29.85a9.041 9.041 0 00-9.041-9.041h-29.85a9.041 9.041 0 00-9.041 9.041v29.85a9.041 9.041 0 009.041 9.041h29.85a9.041 9.041 0 009.041-9.041z" fill="#14c4bb"/><path d="M291.691 382.825H107.173v-35.183a7.5 7.5 0 00-15 0v36.979c0 7.281 5.923 13.204 13.205 13.204h44.787v47.127a1.26 1.26 0 01-1.259 1.259h-37.385v-7.425c0-9.121-7.42-16.542-16.541-16.542H65.13c-9.121 0-16.542 7.42-16.542 16.542v29.85c0 9.121 7.42 16.542 16.542 16.542h29.85c9.121 0 16.541-7.42 16.541-16.542v-7.425h37.385c8.965 0 16.259-7.294 16.259-16.259v-47.127H248.5v51.242h-7.425c-9.121 0-16.542 7.42-16.542 16.542v29.85c0 9.121 7.42 16.542 16.542 16.542h29.85c9.121 0 16.542-7.42 16.542-16.542v-29.85c0-9.121-7.42-16.542-16.542-16.542H263.5v-51.242h28.191a7.5 7.5 0 000-15zm-195.17 85.811c0 .85-.691 1.542-1.541 1.542H65.13c-.85 0-1.542-.691-1.542-1.542v-29.85c0-.85.691-1.542 1.542-1.542h29.85c.85 0 1.541.691 1.541 1.542v29.85zm175.945-3.027v29.85c0 .85-.691 1.542-1.542 1.542h-29.85c-.85 0-1.542-.691-1.542-1.542v-29.85c0-.85.691-1.542 1.542-1.542h29.85c.851 0 1.542.692 1.542 1.542zM141.607 153.61h151.014a7.5 7.5 0 000-15H141.607a7.5 7.5 0 000 15zm182.745-.462a7.5 7.5 0 007.5-7.5v-.819a7.5 7.5 0 00-15 0v.819a7.5 7.5 0 007.5 7.5zm23.018 0a7.5 7.5 0 007.5-7.5v-.819a7.5 7.5 0 00-15 0v.819a7.5 7.5 0 007.5 7.5zm23.018 0a7.5 7.5 0 007.5-7.5v-.819a7.5 7.5 0 00-15 0v.819a7.5 7.5 0 007.5 7.5z"/><path d="M446.871 26.822h-29.85c-9.121 0-16.541 7.42-16.541 16.542v7.425h-37.385c-8.965 0-16.259 7.294-16.259 16.259v47.129H263.5V62.933h7.425c9.121 0 16.542-7.42 16.542-16.542v-29.85C287.466 7.42 280.046 0 270.925 0h-29.85c-9.121 0-16.542 7.42-16.542 16.542v29.85c0 9.121 7.42 16.542 16.542 16.542h7.425v51.244h-83.335v-47.13c0-8.965-7.294-16.259-16.259-16.259h-37.385v-7.425c0-9.121-7.42-16.542-16.541-16.542H65.13c-9.121 0-16.542 7.42-16.542 16.542v29.85c0 9.121 7.42 16.542 16.542 16.542h29.85c9.121 0 16.541-7.42 16.541-16.542v-7.425h37.385a1.26 1.26 0 011.259 1.259v47.129h-38.012c-11.017 0-19.98 8.963-19.98 19.979v182.868a7.5 7.5 0 0015 0V176.301h297.649v30.057a7.5 7.5 0 0015 0v-72.202c0-11.017-8.963-19.979-19.98-19.979h-38.007V67.048a1.26 1.26 0 011.259-1.259h37.385v7.425c0 9.121 7.42 16.542 16.541 16.542h29.85c9.121 0 16.542-7.42 16.542-16.542v-29.85c0-9.121-7.42-16.542-16.541-16.542zM239.534 46.391v-29.85c0-.85.691-1.542 1.542-1.542h29.85c.85 0 1.542.691 1.542 1.542v29.85c0 .85-.691 1.542-1.542 1.542h-29.85a1.543 1.543 0 01-1.542-1.542zM96.521 73.213c0 .85-.691 1.542-1.541 1.542H65.13c-.85 0-1.542-.691-1.542-1.542v-29.85c0-.85.691-1.542 1.542-1.542h29.85c.85 0 1.541.691 1.541 1.542v29.85zm308.301 60.943v27.145H107.173v-27.145a4.985 4.985 0 014.98-4.979h287.689a4.985 4.985 0 014.98 4.979zm43.59-60.943c0 .85-.691 1.542-1.542 1.542h-29.85c-.85 0-1.541-.691-1.541-1.542v-29.85c0-.85.691-1.542 1.541-1.542h29.85c.85 0 1.542.691 1.542 1.542v29.85zm-1.541 349.032h-29.85c-9.121 0-16.541 7.42-16.541 16.542v7.425h-37.385a1.26 1.26 0 01-1.259-1.259v-47.127h44.783c7.281 0 13.205-5.923 13.205-13.204V236.976a7.5 7.5 0 00-15 0v145.85H322.31a7.5 7.5 0 000 15h24.526v47.127c0 8.965 7.294 16.259 16.259 16.259h37.385v7.425c0 9.121 7.42 16.542 16.541 16.542h29.85c9.121 0 16.542-7.42 16.542-16.542v-29.85c-.001-9.121-7.421-16.542-16.542-16.542zm1.541 46.391c0 .85-.691 1.542-1.542 1.542h-29.85c-.85 0-1.541-.691-1.541-1.542v-29.85c0-.85.691-1.542 1.541-1.542h29.85c.85 0 1.542.691 1.542 1.542v29.85z"/><path d="M189.235 238.363a7.5 7.5 0 00-10.606 0l-33.349 33.349a7.5 7.5 0 000 10.606l33.349 33.349c1.464 1.464 3.384 2.197 5.303 2.197s3.839-.732 5.303-2.197a7.5 7.5 0 000-10.606l-28.045-28.045 28.045-28.045a7.502 7.502 0 000-10.608zm133.53 77.304c1.464 1.464 3.384 2.197 5.303 2.197s3.839-.732 5.303-2.197l33.349-33.349a7.5 7.5 0 000-10.606l-33.349-33.349a7.5 7.5 0 00-10.606 0 7.5 7.5 0 000 10.606l28.045 28.045-28.045 28.045a7.502 7.502 0 000 10.608zm-73.754-74.186a7.5 7.5 0 00-10.149 3.083l-33.257 62.267a7.5 7.5 0 0013.232 7.067l33.257-62.267a7.502 7.502 0 00-3.083-10.15zm-2.631 67.301v.757a7.5 7.5 0 0015 0v-.757a7.5 7.5 0 00-15 0zm39.428.757v-.757a7.5 7.5 0 00-15 0v.757a7.5 7.5 0 0015 0zm16.927-8.257a7.5 7.5 0 00-7.5 7.5v.757a7.5 7.5 0 0015 0v-.757a7.5 7.5 0 00-7.5-7.5z"/></svg>