<svg height="512" viewBox="0 0 511.658 511.658" width="512" xmlns="http://www.w3.org/2000/svg"><path d="M449.905 88.501c0-32.053-25.984-58.037-58.037-58.037s-58.037 25.984-58.037 58.037v78.073h30V88.501c0-15.459 12.578-28.037 28.038-28.037s28.038 12.578 28.038 28.037v80.406h30V88.501z" fill="#e5e1e5"/><path d="M446.219 137.862H52.209c-24.69 0-44.71 20.01-44.71 44.71v20.73L114.23 287.74h291.83l76.42-84.438v-29.19c-.001-20.02-16.231-36.25-36.261-36.25z" fill="#b3dafe"/><path d="M446.219 137.862H277.99a132.352 132.352 0 00-18.394 69.511c.487 29.5 10.725 57.539 29.093 80.367H406.06l76.42-84.438v-29.19c-.001-20.02-16.231-36.25-36.261-36.25z" fill="#8ac9fe"/><path d="M482.479 203.302v233.18c0 24.69-20.02 44.71-44.71 44.71H52.209c-24.69 0-44.71-20.02-44.71-44.71v-233.18z" fill="#f9f7f8"/><path d="M259.596 207.373c.568 34.421 14.401 66.861 38.949 91.343 24.548 24.481 57.024 38.228 91.447 38.706.625.009 1.252.013 1.875.013h.003c33.971 0 65.985-12.726 90.608-35.91v-98.224H259.597a134.812 134.812 0 00-.001 4.072z" fill="#efedef"/><path d="M459.961 119.092H323.774c-2.658 0-5.23.975-7.201 2.758-23.152 20.94-37.537 51.391-36.979 85.194.997 60.363 50.312 109.542 110.677 110.381 62.748.872 113.887-49.731 113.887-112.279 0-33.043-14.276-62.747-36.992-83.294a10.74 10.74 0 00-7.205-2.76z" fill="#f79595"/><path d="M326.862 207.043c-.558-33.803 13.828-64.254 36.979-85.194a10.731 10.731 0 017.201-2.758h-47.269c-2.658 0-5.23.975-7.201 2.758-23.152 20.94-37.537 51.391-36.979 85.194.997 60.363 50.312 109.542 110.677 110.381 8.685.121 17.162-.748 25.298-2.495-49.922-10.777-87.833-55.047-88.706-107.886z" fill="#f37c7c"/><path d="M416.627 237.497l-6.796-21.463c-.694-2.193-.187-4.567 1.277-6.341a24.858 24.858 0 005.647-17.361c-.732-12.45-10.849-22.604-23.297-23.376-14.489-.899-26.521 10.586-26.521 24.882 0 6.015 2.13 11.531 5.677 15.838 1.468 1.782 1.988 4.159 1.291 6.36l-6.796 21.461c-1.623 5.126 2.204 10.352 7.581 10.352h34.358c5.376 0 9.202-5.225 7.579-10.352z" fill="#f37c7c"/><path d="M134.204 308.767c-8.946 0-16.199-7.252-16.199-16.199v-9.657c0-8.946 7.252-16.199 16.199-16.199 8.946 0 16.199 7.252 16.199 16.199v9.657c-.001 8.947-7.253 16.199-16.199 16.199zm0 105.463c-8.946 0-16.199-7.252-16.199-16.199v-9.657c0-8.946 7.252-16.199 16.199-16.199 8.946 0 16.199 7.252 16.199 16.199v9.657c-.001 8.947-7.253 16.199-16.199 16.199zm126.984 0c8.946 0 16.199-7.252 16.199-16.199v-9.657c0-8.946-7.252-16.199-16.199-16.199-8.946 0-16.199 7.252-16.199 16.199v9.657c0 8.947 7.253 16.199 16.199 16.199zm131.318 0c-8.946 0-16.199-7.252-16.199-16.199v-9.657c0-8.946 7.252-16.199 16.199-16.199 8.946 0 16.199 7.252 16.199 16.199v9.657c-.001 8.947-7.253 16.199-16.199 16.199z" fill="#b3dafe"/><path d="M109.269 145.357h157.244a7.5 7.5 0 000-15H109.269a7.5 7.5 0 000 15z"/><path d="M7.5 376.949a7.5 7.5 0 007.5-7.5V210.804h226.367a7.5 7.5 0 000-15H15v-13.233c0-20.52 16.694-37.214 37.214-37.214h25.093a7.5 7.5 0 000-15H52.214C23.423 130.357 0 153.78 0 182.571v186.878a7.5 7.5 0 007.5 7.5zm474.979-69.583a7.5 7.5 0 00-7.5 7.5V436.48c0 20.52-16.694 37.213-37.213 37.213H52.214C31.694 473.694 15 457 15 436.48v-35.068a7.5 7.5 0 00-15 0v35.068c0 28.791 23.423 52.213 52.214 52.213h385.551c28.791 0 52.213-23.423 52.213-52.213V314.866a7.499 7.499 0 00-7.499-7.5z"/><path d="M272.094 207.167c.514 31.154 13.043 60.523 35.278 82.699 22.234 22.174 51.638 34.625 82.794 35.058.574.008 1.144.012 1.717.012 31.691-.001 61.499-12.212 84.094-34.496 23.008-22.691 35.68-52.982 35.68-85.294 0-13.705-2.306-27.162-6.853-39.998a7.5 7.5 0 00-14.139 5.009c3.976 11.223 5.991 22.995 5.991 34.989 0 28.266-11.085 54.764-31.212 74.614-20.124 19.845-46.76 30.584-75.071 30.165-27.235-.378-52.951-11.274-72.41-30.68s-30.423-45.092-30.873-72.326a104.864 104.864 0 0134.511-79.507 3.221 3.221 0 012.17-.82h136.188c.815 0 1.587.292 2.173.822a105.697 105.697 0 0114.415 16.005 7.498 7.498 0 0010.48 1.632 7.499 7.499 0 001.632-10.48 120.67 120.67 0 00-16.465-18.282 18.204 18.204 0 00-12.235-4.698h-2.556v-23.09c0-36.137-29.4-65.537-65.538-65.537s-65.538 29.4-65.538 65.537v23.09h-2.557c-4.54 0-8.884 1.667-12.232 4.695a119.876 119.876 0 00-39.444 90.881zm140.311-95.575H371.33v-23.09c0-11.324 9.213-20.537 20.538-20.537s20.538 9.213 20.538 20.537v23.09zM341.33 88.501c0-27.866 22.671-50.537 50.538-50.537s50.538 22.671 50.538 50.537v23.09h-15v-23.09c0-19.595-15.942-35.537-35.538-35.537S356.33 68.906 356.33 88.501v23.09h-15zM47.865 166.574a7.5 7.5 0 000 15h6.265a7.5 7.5 0 000-15zm31.658 7.5a7.5 7.5 0 007.5 7.5h6.265a7.5 7.5 0 000-15h-6.265a7.5 7.5 0 00-7.5 7.5zm46.659-7.5a7.5 7.5 0 000 15h6.265a7.5 7.5 0 000-15zm39.158 0a7.5 7.5 0 000 15h76.027a7.5 7.5 0 000-15z"/><path d="M362.222 249.027c2.942 4.018 7.486 6.322 12.466 6.322h34.358c4.98 0 9.524-2.304 12.466-6.322s3.768-9.045 2.265-13.793l-6.662-21.039c5.074-6.287 7.603-14.192 7.126-22.302-.959-16.33-13.994-29.409-30.319-30.421-9.059-.563-17.673 2.538-24.262 8.731a32.556 32.556 0 00-10.224 23.635 32.485 32.485 0 007.184 20.356l-6.663 21.04c-1.502 4.748-.677 9.775 2.265 13.793zm12.036-9.266l6.796-21.461c1.456-4.6.465-9.606-2.652-13.393-2.594-3.149-3.966-6.978-3.966-11.069 0-4.861 1.952-9.374 5.497-12.705a17.28 17.28 0 0111.932-4.726c.375 0 .751.012 1.129.035 8.619.535 15.767 7.708 16.273 16.33.261 4.435-1.14 8.749-3.944 12.147-3.113 3.773-4.101 8.774-2.642 13.379l6.796 21.462c.024.077.069.219-.066.404s-.284.185-.364.185h-34.358c-.08 0-.229 0-.364-.185-.136-.184-.091-.326-.067-.403zM76.045 266.713a7.5 7.5 0 00-15 0v42.054a7.5 7.5 0 0015 0zm131.317 0a7.5 7.5 0 00-15 0v42.054a7.5 7.5 0 0015 0zm-49.46 16.199c0-13.067-10.631-23.699-23.699-23.699s-23.699 10.631-23.699 23.699v9.657c0 13.067 10.631 23.699 23.699 23.699s23.699-10.631 23.699-23.699zm-15 9.657c0 4.796-3.902 8.699-8.699 8.699s-8.699-3.902-8.699-8.699v-9.657c0-4.796 3.902-8.699 8.699-8.699s8.699 3.902 8.699 8.699zm-74.357 72.108a7.5 7.5 0 00-7.5 7.5v42.054a7.5 7.5 0 0015 0v-42.054a7.5 7.5 0 00-7.5-7.5zm131.317 0a7.5 7.5 0 00-7.5 7.5v42.054a7.5 7.5 0 0015 0v-42.054a7.5 7.5 0 00-7.5-7.5zm-65.658 0c-13.067 0-23.699 10.631-23.699 23.699v9.657c0 13.067 10.631 23.698 23.699 23.698s23.699-10.631 23.699-23.698v-9.657c-.001-13.068-10.632-23.699-23.699-23.699zm8.698 33.355c0 4.796-3.902 8.698-8.699 8.698s-8.699-3.902-8.699-8.698v-9.657c0-4.796 3.902-8.699 8.699-8.699s8.699 3.902 8.699 8.699zm176.445-25.855v42.054a7.5 7.5 0 0015 0v-42.054a7.5 7.5 0 00-15 0zm-81.858 16.198v9.657c0 13.067 10.631 23.698 23.699 23.698s23.699-10.631 23.699-23.698v-9.657c0-13.067-10.631-23.699-23.699-23.699s-23.699 10.632-23.699 23.699zm32.398 0v9.657c0 4.796-3.902 8.698-8.699 8.698s-8.699-3.902-8.699-8.698v-9.657c0-4.796 3.902-8.699 8.699-8.699s8.699 3.903 8.699 8.699zm98.92 0v9.657c0 13.067 10.631 23.698 23.699 23.698s23.699-10.631 23.699-23.698v-9.657c0-13.067-10.631-23.699-23.699-23.699s-23.699 10.632-23.699 23.699zm32.398 0v9.657c0 4.796-3.902 8.698-8.699 8.698s-8.699-3.902-8.699-8.698v-9.657c0-4.796 3.902-8.699 8.699-8.699s8.699 3.903 8.699 8.699z"/></svg>