<svg id="Capa_1" enable-background="new 0 0 511.658 511.658" height="512" viewBox="0 0 511.658 511.658" width="512" xmlns="http://www.w3.org/2000/svg"><g><g><path d="m449.905 88.501c0-32.053-25.984-58.037-58.037-58.037s-58.037 25.984-58.037 58.037v78.073h30v-78.073c0-15.459 12.578-28.037 28.038-28.037s28.038 12.578 28.038 28.037v80.406h30v-80.406z" fill="#e5e1e5"/><path d="m446.219 137.862h-394.01c-24.69 0-44.71 20.01-44.71 44.71v20.73l106.731 84.438h291.83l76.42-84.438v-29.19c-.001-20.02-16.231-36.25-36.261-36.25z" fill="#b3dafe"/><path d="m446.219 137.862h-168.229c-12.297 20.816-18.801 44.829-18.394 69.511.487 29.5 10.725 57.539 29.093 80.367h117.371l76.42-84.438v-29.19c-.001-20.02-16.231-36.25-36.261-36.25z" fill="#8ac9fe"/><g id="XMLID_115_"><g><path d="m482.479 203.302v233.18c0 24.69-20.02 44.71-44.71 44.71h-385.56c-24.69 0-44.71-20.02-44.71-44.71v-233.18z" fill="#f9f7f8"/></g></g><g><path d="m259.596 207.373c.568 34.421 14.401 66.861 38.949 91.343 24.548 24.481 57.024 38.228 91.447 38.706.625.009 1.252.013 1.875.013h.003c33.971 0 65.985-12.726 90.608-35.91v-98.224h-222.881c-.019 1.356-.023 2.713-.001 4.072z" fill="#efedef"/><path d="m459.961 119.092h-136.187c-2.658 0-5.23.975-7.201 2.758-23.152 20.94-37.537 51.391-36.979 85.194.997 60.363 50.312 109.542 110.677 110.381 62.748.872 113.887-49.731 113.887-112.279 0-33.043-14.276-62.747-36.992-83.294-1.973-1.784-4.546-2.76-7.205-2.76z" fill="#f79595"/><path d="m326.862 207.043c-.558-33.803 13.828-64.254 36.979-85.194 1.971-1.783 4.543-2.758 7.201-2.758h-47.269c-2.658 0-5.23.975-7.201 2.758-23.152 20.94-37.537 51.391-36.979 85.194.997 60.363 50.312 109.542 110.677 110.381 8.685.121 17.162-.748 25.298-2.495-49.922-10.777-87.833-55.047-88.706-107.886z" fill="#f37c7c"/><path d="m416.627 237.497-6.796-21.463c-.694-2.193-.187-4.567 1.277-6.341 3.849-4.666 6.035-10.756 5.647-17.361-.732-12.45-10.849-22.604-23.297-23.376-14.489-.899-26.521 10.586-26.521 24.882 0 6.015 2.13 11.531 5.677 15.838 1.468 1.782 1.988 4.159 1.291 6.36l-6.796 21.461c-1.623 5.126 2.204 10.352 7.581 10.352h34.358c5.376 0 9.202-5.225 7.579-10.352z" fill="#f37c7c"/><g fill="#b3dafe"><path d="m134.204 308.767c-8.946 0-16.199-7.252-16.199-16.199v-9.657c0-8.946 7.252-16.199 16.199-16.199 8.946 0 16.199 7.252 16.199 16.199v9.657c-.001 8.947-7.253 16.199-16.199 16.199z"/><path d="m134.204 414.23c-8.946 0-16.199-7.252-16.199-16.199v-9.657c0-8.946 7.252-16.199 16.199-16.199 8.946 0 16.199 7.252 16.199 16.199v9.657c-.001 8.947-7.253 16.199-16.199 16.199z"/><path d="m261.188 414.23c8.946 0 16.199-7.252 16.199-16.199v-9.657c0-8.946-7.252-16.199-16.199-16.199-8.946 0-16.199 7.252-16.199 16.199v9.657c0 8.947 7.253 16.199 16.199 16.199z"/><path d="m392.506 414.23c-8.946 0-16.199-7.252-16.199-16.199v-9.657c0-8.946 7.252-16.199 16.199-16.199 8.946 0 16.199 7.252 16.199 16.199v9.657c-.001 8.947-7.253 16.199-16.199 16.199z"/></g></g></g><g><path d="m109.269 145.357h157.244c4.142 0 7.5-3.358 7.5-7.5s-3.358-7.5-7.5-7.5h-157.244c-4.142 0-7.5 3.358-7.5 7.5s3.358 7.5 7.5 7.5z"/><path d="m7.5 376.949c4.142 0 7.5-3.358 7.5-7.5v-158.645h226.367c4.142 0 7.5-3.358 7.5-7.5s-3.358-7.5-7.5-7.5h-226.367v-13.233c0-20.52 16.694-37.214 37.214-37.214h25.093c4.142 0 7.5-3.358 7.5-7.5s-3.358-7.5-7.5-7.5h-25.093c-28.791 0-52.214 23.423-52.214 52.214v186.878c0 4.143 3.358 7.5 7.5 7.5z"/><path d="m482.479 307.366c-4.142 0-7.5 3.358-7.5 7.5v121.614c0 20.52-16.694 37.213-37.213 37.213h-385.552c-20.52.001-37.214-16.693-37.214-37.213v-35.068c0-4.142-3.358-7.5-7.5-7.5s-7.5 3.358-7.5 7.5v35.068c0 28.791 23.423 52.213 52.214 52.213h385.551c28.791 0 52.213-23.423 52.213-52.213v-121.614c.001-4.142-3.357-7.5-7.499-7.5z"/><path d="m272.094 207.167c.514 31.154 13.043 60.523 35.278 82.699 22.234 22.174 51.638 34.625 82.794 35.058.574.008 1.144.012 1.717.012 31.691-.001 61.499-12.212 84.094-34.496 23.008-22.691 35.68-52.982 35.68-85.294 0-13.705-2.306-27.162-6.853-39.998-1.383-3.904-5.671-5.949-9.574-4.565-3.904 1.383-5.948 5.669-4.565 9.574 3.976 11.223 5.991 22.995 5.991 34.989 0 28.266-11.085 54.764-31.212 74.614-20.124 19.845-46.76 30.584-75.071 30.165-27.235-.378-52.951-11.274-72.41-30.68s-30.423-45.092-30.873-72.326c-.5-30.239 12.08-59.219 34.511-79.507.585-.529 1.355-.82 2.17-.82h136.188c.815 0 1.587.292 2.173.822 5.327 4.818 10.176 10.203 14.415 16.005 2.443 3.345 7.136 4.077 10.48 1.632 3.345-2.443 4.076-7.135 1.632-10.48-4.841-6.628-10.381-12.779-16.465-18.282-3.35-3.029-7.695-4.698-12.235-4.698h-2.556v-23.09c0-36.137-29.4-65.537-65.538-65.537s-65.538 29.4-65.538 65.537v23.09h-2.557c-4.54 0-8.884 1.667-12.232 4.695-25.637 23.192-40.015 56.316-39.444 90.881zm140.311-95.575h-41.075v-23.09c0-11.324 9.213-20.537 20.538-20.537s20.538 9.213 20.538 20.537v23.09zm-71.075-23.091c0-27.866 22.671-50.537 50.538-50.537s50.538 22.671 50.538 50.537v23.09h-15v-23.09c0-19.595-15.942-35.537-35.538-35.537s-35.538 15.942-35.538 35.537v23.09h-15z"/><path d="m47.865 166.574c-4.142 0-7.5 3.358-7.5 7.5s3.358 7.5 7.5 7.5h6.265c4.142 0 7.5-3.358 7.5-7.5s-3.358-7.5-7.5-7.5z"/><path d="m79.523 174.074c0 4.142 3.358 7.5 7.5 7.5h6.265c4.142 0 7.5-3.358 7.5-7.5s-3.358-7.5-7.5-7.5h-6.265c-4.142 0-7.5 3.358-7.5 7.5z"/><path d="m126.182 166.574c-4.142 0-7.5 3.358-7.5 7.5s3.358 7.5 7.5 7.5h6.265c4.142 0 7.5-3.358 7.5-7.5s-3.358-7.5-7.5-7.5z"/><path d="m165.34 166.574c-4.142 0-7.5 3.358-7.5 7.5s3.358 7.5 7.5 7.5h76.027c4.142 0 7.5-3.358 7.5-7.5s-3.358-7.5-7.5-7.5z"/><path d="m362.222 249.027c2.942 4.018 7.486 6.322 12.466 6.322h34.358c4.98 0 9.524-2.304 12.466-6.322s3.768-9.045 2.265-13.793l-6.662-21.039c5.074-6.287 7.603-14.192 7.126-22.302-.959-16.33-13.994-29.409-30.319-30.421-9.059-.563-17.673 2.538-24.262 8.731-6.498 6.107-10.224 14.721-10.224 23.635 0 7.397 2.549 14.613 7.184 20.356l-6.663 21.04c-1.502 4.748-.677 9.775 2.265 13.793zm12.036-9.266 6.796-21.461c1.456-4.6.465-9.606-2.652-13.393-2.594-3.149-3.966-6.978-3.966-11.069 0-4.861 1.952-9.374 5.497-12.705 3.267-3.07 7.468-4.726 11.932-4.726.375 0 .751.012 1.129.035 8.619.535 15.767 7.708 16.273 16.33.261 4.435-1.14 8.749-3.944 12.147-3.113 3.773-4.101 8.774-2.642 13.379l6.796 21.462c.024.077.069.219-.066.404s-.284.185-.364.185h-34.358c-.08 0-.229 0-.364-.185-.136-.184-.091-.326-.067-.403z"/><path d="m76.045 266.713c0-4.142-3.358-7.5-7.5-7.5s-7.5 3.358-7.5 7.5v42.054c0 4.142 3.358 7.5 7.5 7.5s7.5-3.358 7.5-7.5z"/><path d="m207.362 266.713c0-4.142-3.358-7.5-7.5-7.5s-7.5 3.358-7.5 7.5v42.054c0 4.142 3.358 7.5 7.5 7.5s7.5-3.358 7.5-7.5z"/><path d="m157.902 282.912c0-13.067-10.631-23.699-23.699-23.699s-23.699 10.631-23.699 23.699v9.657c0 13.067 10.631 23.699 23.699 23.699s23.699-10.631 23.699-23.699zm-15 9.657c0 4.796-3.902 8.699-8.699 8.699s-8.699-3.902-8.699-8.699v-9.657c0-4.796 3.902-8.699 8.699-8.699s8.699 3.902 8.699 8.699z"/><path d="m68.545 364.677c-4.142 0-7.5 3.358-7.5 7.5v42.054c0 4.142 3.358 7.5 7.5 7.5s7.5-3.358 7.5-7.5v-42.054c0-4.143-3.358-7.5-7.5-7.5z"/><path d="m199.862 364.677c-4.142 0-7.5 3.358-7.5 7.5v42.054c0 4.142 3.358 7.5 7.5 7.5s7.5-3.358 7.5-7.5v-42.054c0-4.143-3.358-7.5-7.5-7.5z"/><path d="m134.204 364.677c-13.067 0-23.699 10.631-23.699 23.699v9.657c0 13.067 10.631 23.698 23.699 23.698s23.699-10.631 23.699-23.698v-9.657c-.001-13.068-10.632-23.699-23.699-23.699zm8.698 33.355c0 4.796-3.902 8.698-8.699 8.698s-8.699-3.902-8.699-8.698v-9.657c0-4.796 3.902-8.699 8.699-8.699s8.699 3.902 8.699 8.699z"/><path d="m319.347 372.177v42.054c0 4.142 3.358 7.5 7.5 7.5s7.5-3.358 7.5-7.5v-42.054c0-4.142-3.358-7.5-7.5-7.5s-7.5 3.357-7.5 7.5z"/><path d="m237.489 388.375v9.657c0 13.067 10.631 23.698 23.699 23.698s23.699-10.631 23.699-23.698v-9.657c0-13.067-10.631-23.699-23.699-23.699s-23.699 10.632-23.699 23.699zm32.398 0v9.657c0 4.796-3.902 8.698-8.699 8.698s-8.699-3.902-8.699-8.698v-9.657c0-4.796 3.902-8.699 8.699-8.699s8.699 3.903 8.699 8.699z"/><path d="m368.807 388.375v9.657c0 13.067 10.631 23.698 23.699 23.698s23.699-10.631 23.699-23.698v-9.657c0-13.067-10.631-23.699-23.699-23.699s-23.699 10.632-23.699 23.699zm32.398 0v9.657c0 4.796-3.902 8.698-8.699 8.698s-8.699-3.902-8.699-8.698v-9.657c0-4.796 3.902-8.699 8.699-8.699s8.699 3.903 8.699 8.699z"/></g></g></svg>