<svg id="Capa_1" enable-background="new 0 0 512.814 512.814" height="512" viewBox="0 0 512.814 512.814" width="512" xmlns="http://www.w3.org/2000/svg"><g><g><path d="m499.203 451.103-80.671-80.671-9.562-14.581-32.281 30.607 12.274 13.543 80.671 80.671c8.165 8.165 21.404 8.165 29.569 0 8.166-8.166 8.166-21.404 0-29.569z" fill="#e19974"/><circle cx="286.493" cy="267.961" fill="#f9f7f8" r="133.14"/><g id="XMLID_436_"><g><path d="m208.754 262.962c0-51.576 24.284-97.589 62.017-127.208-66.108 7.612-117.421 64.111-117.418 132.207.002 73.41 59.73 133.14 133.14 133.14h.037c-46.596-28.398-77.776-79.698-77.776-138.139z" fill="#f3f0f3"/><path d="m286.493 100.821c92.31 0 167.14 74.83 167.14 167.14s-74.83 167.14-167.14 167.14-167.14-74.83-167.14-167.14 74.83-167.14 167.14-167.14zm133.14 167.14c0-73.41-59.73-133.14-133.14-133.14s-133.14 59.73-133.14 133.14 59.73 133.14 133.14 133.14 133.14-59.73 133.14-133.14z" fill="#99e6fc"/></g></g></g><g><path d="m7.502 219.047c4.142 0 7.5-3.358 7.5-7.5v-39.003c0-24.484 6.484-48.571 18.751-69.658 11.908-20.47 28.957-37.702 49.307-49.833 3.558-2.121 4.723-6.725 2.602-10.283-2.121-3.557-6.725-4.724-10.283-2.601-22.53 13.431-41.408 32.51-54.592 55.175-13.598 23.375-20.785 50.07-20.785 77.201v39.003c0 4.141 3.358 7.499 7.5 7.499z"/><path d="m264.125 200.014c-4.142 0-7.5 3.358-7.5 7.5v27.268c0 15.874 10.093 29.983 25.114 35.111l16.364 5.586c.803.274 1.62.404 2.424.404 3.12 0 6.033-1.962 7.097-5.079 1.338-3.92-.754-8.183-4.674-9.521l-16.364-5.587c-8.948-3.054-14.96-11.459-14.96-20.915v-27.268c-.001-4.141-3.359-7.499-7.501-7.499z"/><path d="m109.514 121.338c1.582 0 3.176-.499 4.533-1.529 11.599-8.814 25.419-13.473 39.967-13.473 8.129 0 16.099 1.48 23.687 4.399 3.864 1.487 8.206-.442 9.693-4.307 1.487-3.866-.441-8.206-4.307-9.693-9.313-3.583-19.095-5.399-29.073-5.399-17.854 0-34.813 5.716-49.043 16.531-3.298 2.506-3.939 7.211-1.433 10.509 1.475 1.941 3.713 2.962 5.976 2.962z"/><path d="m95.407 141.799c1.931-3.665.526-8.201-3.139-10.132-3.664-1.93-8.2-.526-10.132 3.139-6.104 11.584-9.332 24.634-9.332 37.739v39.003c0 17.565 5.544 34.299 16.033 48.392 1.472 1.978 3.733 3.022 6.022 3.022 1.557 0 3.127-.483 4.472-1.484 3.323-2.473 4.012-7.171 1.539-10.495-8.548-11.485-13.066-25.122-13.066-39.436v-39.003c.001-10.829 2.559-21.174 7.603-30.745z"/><path d="m419.538 276.92c-4.113-.505-7.854 2.414-8.362 6.525-7.75 62.798-61.352 110.154-124.683 110.154-33.681 0-64.307-13.325-86.89-34.978 8.007-2.479 15.804-5.593 23.282-9.347.354-.178.729-.238 1.056-.171l20.843 4.321c4.054.84 8.025-1.765 8.866-5.821s-1.765-8.025-5.821-8.866l-20.841-4.321c-3.623-.75-7.471-.236-10.833 1.454-8.859 4.447-18.206 7.933-27.842 10.388-4.762-5.959-8.994-12.359-12.624-19.129 17.8-3.334 34.643-10.758 49.209-21.793 2.845-2.156 6.511-2.88 10.059-1.987l46.041 11.593c4.015 1.011 8.093-1.425 9.104-5.442s-1.425-8.093-5.442-9.104l-46.041-11.593c-7.984-2.012-16.288-.341-22.779 4.577-13.714 10.39-29.737 17.114-46.622 19.638-2.574-6.677-4.593-13.627-6-20.794 18.526-2.091 35.678-10.447 48.887-23.977 14.908-15.271 23.118-35.407 23.118-56.699v-39.003c0-6.195-.704-12.327-2.089-18.306 6.36-2.996 13.01-5.475 19.896-7.38 2.374 8.842 3.595 17.961 3.595 27.202v.253c0 4.142 3.358 7.5 7.5 7.5s7.5-3.358 7.5-7.5v-.253c0-10.294-1.324-20.46-3.905-30.331 6.126-.922 12.395-1.403 18.774-1.403 1.077 0 2.151.016 3.223.043 2.19 9.864 3.31 19.988 3.31 30.175v39.003c0 4.142 3.358 7.5 7.5 7.5s7.5-3.358 7.5-7.5v-39.003c0-9.698-.924-19.346-2.724-28.807 55.205 8.307 99.308 52.62 105.965 109.535.481 4.114 4.215 7.064 8.32 6.578 4.114-.481 7.06-4.207 6.578-8.32-8.282-70.808-68.328-124.204-139.671-124.204-77.547 0-140.636 63.089-140.636 140.636s63.089 140.636 140.636 140.636c70.892 0 130.894-53.015 139.569-123.317.506-4.111-2.415-7.855-6.526-8.362zm-199.315-104.376v39.003c0 17.353-6.695 33.768-18.852 46.22-10.846 11.11-24.947 17.938-40.163 19.585-.23-3.101-.35-6.231-.35-9.39 0-4.128.206-8.207.597-12.234 21.324-3.552 37.367-22.045 37.367-44.182v-33.479c6.245-6.092 13.118-11.543 20.516-16.241.58 3.529.885 7.108.885 10.718zm-56.138 67.061c3.716-16.044 10.517-30.919 19.736-43.968v15.91c0 12.895-8.181 23.926-19.736 28.058z"/><path d="m504.507 445.8-76.133-76.133c20.604-28.662 32.756-63.789 32.756-101.704 0-96.295-78.341-174.636-174.636-174.636-.151 0-.3.005-.451.006-27.84-46.247-78.017-74.8-132.028-74.8-15.893 0-31.587 2.432-46.647 7.229-3.947 1.257-6.127 5.476-4.871 9.422 1.257 3.947 5.478 6.126 9.422 4.871 13.586-4.328 27.749-6.521 42.095-6.521 46.022 0 88.955 22.984 114.764 60.687-8.206.831-16.242 2.243-24.076 4.174-22.76-27.912-57.084-44.072-92.801-43.441-30.926.549-59.943 13.037-81.707 35.165-21.79 22.155-33.791 51.428-33.791 82.428v62.238c0 9.456-6.012 17.861-14.96 20.916l-16.364 5.586c-3.92 1.338-6.013 5.601-4.675 9.521 1.064 3.118 3.977 5.08 7.097 5.079.803 0 1.621-.13 2.423-.404l16.364-5.586c15.022-5.127 25.115-19.237 25.115-35.111v-62.238c0-27.04 10.471-52.578 29.485-71.91 18.991-19.309 44.305-30.207 71.278-30.685 29.034-.54 57.009 11.717 76.762 33.136-19.633 6.875-37.682 17.152-53.42 30.139-6.557-3.6-13.884-5.488-21.495-5.488-24.707 0-44.807 20.101-44.807 44.807v10.676c0 4.142 3.358 7.5 7.5 7.5s7.5-3.358 7.5-7.5v-10.676c0-16.436 13.372-29.807 29.807-29.807 3.225 0 6.372.51 9.358 1.496-18.543 18.453-32.968 41.036-41.779 66.232-1.52-1.164-3.482-1.751-5.53-1.483-4.107.536-7.002 4.3-6.466 8.408.756 5.794 2.688 11.436 5.606 16.508-2.188 11.021-3.345 22.409-3.345 34.064 0 13.39 1.519 26.432 4.387 38.965-8.142-3.234-15.85-7.485-22.995-12.756-7.261-5.356-16.423-7.29-25.138-5.304l-50.413 11.487c-4.039.92-6.566 4.94-5.646 8.979.92 4.038 4.938 6.567 8.979 5.646l50.412-11.487c4.456-1.014 9.157-.012 12.901 2.75 11.217 8.274 23.625 14.411 36.914 18.268 2.877 8.382 6.378 16.475 10.442 24.23-13.766-2.219-27.043-6.483-39.605-12.761-3.641-1.82-7.778-2.265-11.647-1.251l-29.061 7.601c-4.007 1.048-6.406 5.146-5.358 9.154 1.048 4.007 5.144 6.407 9.154 5.358l29.061-7.601c.351-.092.758-.036 1.146.158 17.572 8.782 36.4 14.025 55.991 15.619 5.202 7.753 11.013 15.063 17.356 21.872-1.576.042-3.151.07-4.724.07-20.745 0-41.078-3.614-60.434-10.742-3.888-1.434-8.199.559-9.63 4.446s.56 8.199 4.446 9.63c21.021 7.741 43.099 11.666 65.618 11.666 6.479 0 12.995-.352 19.428-1.007 7.744 6.593 16.068 12.522 24.885 17.7-31.907 6.809-65.427 6.171-97.02-1.951-1.345-.621-2.887-.85-4.454-.571-4.078.728-6.794 4.623-6.067 8.7l.022.126c.513 2.875 2.648 5.192 5.473 5.936 18.81 4.955 38.234 7.468 57.732 7.468s38.922-2.513 57.732-7.468c1.82-.48 3.347-1.618 4.345-3.132 21.548 9.53 45.365 14.837 70.402 14.837 37.915 0 73.042-12.152 101.705-32.757l10.002 10.002c1.464 1.464 3.384 2.197 5.303 2.197s3.839-.732 5.303-2.197c2.929-2.929 2.929-7.678 0-10.606l-8.732-8.732c6.793-5.829 13.133-12.17 18.962-18.962l74.864 74.864c5.228 5.228 5.228 13.734 0 18.962-5.228 5.227-13.734 5.228-18.962 0l-43.53-43.53c-2.929-2.929-7.678-2.929-10.606 0-2.929 2.929-2.929 7.678 0 10.606l43.53 43.53c5.538 5.538 12.813 8.307 20.087 8.307s14.55-2.769 20.088-8.307c11.078-11.079 11.078-29.101.002-40.177zm-218.013-18.202c-88.024 0-159.636-71.612-159.636-159.636s71.612-159.636 159.636-159.636 159.636 71.612 159.636 159.636-71.612 159.636-159.636 159.636z"/></g></g></svg>