<svg height="512" viewBox="0 0 512.814 512.814" width="512" xmlns="http://www.w3.org/2000/svg"><path d="M499.203 451.103l-80.671-80.671-9.562-14.581-32.281 30.607 12.274 13.543 80.671 80.671c8.165 8.165 21.404 8.165 29.569 0 8.166-8.166 8.166-21.404 0-29.569z" fill="#e19974"/><circle cx="286.493" cy="267.961" fill="#f9f7f8" r="133.14"/><path d="M208.754 262.962c0-51.576 24.284-97.589 62.017-127.208-66.108 7.612-117.421 64.111-117.418 132.207.002 73.41 59.73 133.14 133.14 133.14h.037c-46.596-28.398-77.776-79.698-77.776-138.139z" fill="#f3f0f3"/><path d="M286.493 100.821c92.31 0 167.14 74.83 167.14 167.14s-74.83 167.14-167.14 167.14-167.14-74.83-167.14-167.14 74.83-167.14 167.14-167.14zm133.14 167.14c0-73.41-59.73-133.14-133.14-133.14s-133.14 59.73-133.14 133.14 59.73 133.14 133.14 133.14 133.14-59.73 133.14-133.14z" fill="#99e6fc"/><path d="M7.502 219.047a7.5 7.5 0 007.5-7.5v-39.003c0-24.484 6.484-48.571 18.751-69.658A140.279 140.279 0 0183.06 53.053a7.5 7.5 0 10-7.681-12.884C52.849 53.6 33.971 72.679 20.787 95.344 7.189 118.719.002 145.414.002 172.545v39.003a7.5 7.5 0 007.5 7.499zm256.623-19.033a7.5 7.5 0 00-7.5 7.5v27.268a37.096 37.096 0 0025.114 35.111l16.364 5.586a7.493 7.493 0 009.521-4.675 7.5 7.5 0 00-4.674-9.521l-16.364-5.587a22.096 22.096 0 01-14.96-20.915v-27.268a7.501 7.501 0 00-7.501-7.499zm-154.611-78.676a7.474 7.474 0 004.533-1.529c11.599-8.814 25.419-13.473 39.967-13.473 8.129 0 16.099 1.48 23.687 4.399a7.5 7.5 0 005.386-14 80.663 80.663 0 00-29.073-5.399c-17.854 0-34.813 5.716-49.043 16.531a7.5 7.5 0 004.543 13.471zm-14.107 20.461a7.5 7.5 0 10-13.271-6.993 81.262 81.262 0 00-9.332 37.739v39.003c0 17.565 5.544 34.299 16.033 48.392a7.488 7.488 0 006.022 3.022 7.5 7.5 0 006.011-11.979c-8.548-11.485-13.066-25.122-13.066-39.436v-39.003c.001-10.829 2.559-21.174 7.603-30.745z"/><path d="M419.538 276.92a7.5 7.5 0 00-8.362 6.525c-7.75 62.798-61.352 110.154-124.683 110.154-33.681 0-64.307-13.325-86.89-34.978a152.26 152.26 0 0023.282-9.347c.354-.178.729-.238 1.056-.171l20.843 4.321a7.5 7.5 0 103.045-14.687l-20.841-4.321c-3.623-.75-7.471-.236-10.833 1.454a138.086 138.086 0 01-27.842 10.388 126.091 126.091 0 01-12.624-19.129 117.18 117.18 0 0049.209-21.793c2.845-2.156 6.511-2.88 10.059-1.987l46.041 11.593a7.5 7.5 0 003.662-14.546l-46.041-11.593c-7.984-2.012-16.288-.341-22.779 4.577a102.188 102.188 0 01-46.622 19.638 124.431 124.431 0 01-6-20.794c18.526-2.091 35.678-10.447 48.887-23.977 14.908-15.271 23.118-35.407 23.118-56.699v-39.003c0-6.195-.704-12.327-2.089-18.306a124.707 124.707 0 0119.896-7.38 104.764 104.764 0 013.595 27.202v.253a7.5 7.5 0 0015 0v-.253c0-10.294-1.324-20.46-3.905-30.331a126.083 126.083 0 0121.997-1.36 139.266 139.266 0 013.31 30.175v39.003a7.5 7.5 0 0015 0v-39.003c0-9.698-.924-19.346-2.724-28.807 55.205 8.307 99.308 52.62 105.965 109.535.481 4.114 4.215 7.064 8.32 6.578a7.5 7.5 0 006.578-8.32c-8.282-70.808-68.328-124.204-139.671-124.204-77.547 0-140.636 63.089-140.636 140.636s63.089 140.636 140.636 140.636c70.892 0 130.894-53.015 139.569-123.317a7.501 7.501 0 00-6.526-8.362zM220.223 172.544v39.003c0 17.353-6.695 33.768-18.852 46.22-10.846 11.11-24.947 17.938-40.163 19.585-.23-3.101-.35-6.231-.35-9.39 0-4.128.206-8.207.597-12.234 21.324-3.552 37.367-22.045 37.367-44.182v-33.479a126.526 126.526 0 0120.516-16.241c.58 3.529.885 7.108.885 10.718zm-56.138 67.061c3.716-16.044 10.517-30.919 19.736-43.968v15.91c0 12.895-8.181 23.926-19.736 28.058z"/><path d="M504.507 445.8l-76.133-76.133c20.604-28.662 32.756-63.789 32.756-101.704 0-96.295-78.341-174.636-174.636-174.636-.151 0-.3.005-.451.006-27.84-46.247-78.017-74.8-132.028-74.8a153.488 153.488 0 00-46.647 7.229 7.501 7.501 0 004.551 14.293 138.495 138.495 0 0142.095-6.521c46.022 0 88.955 22.984 114.764 60.687a173.671 173.671 0 00-24.076 4.174c-22.76-27.912-57.084-44.072-92.801-43.441-30.926.549-59.943 13.037-81.707 35.165-21.79 22.155-33.791 51.428-33.791 82.428v62.238a22.098 22.098 0 01-14.96 20.916l-16.364 5.586a7.5 7.5 0 004.845 14.196l16.364-5.586a37.094 37.094 0 0025.115-35.111v-62.238c0-27.04 10.471-52.578 29.485-71.91 18.991-19.309 44.305-30.207 71.278-30.685 29.034-.54 57.009 11.717 76.762 33.136a174.628 174.628 0 00-53.42 30.139c-6.557-3.6-13.884-5.488-21.495-5.488-24.707 0-44.807 20.101-44.807 44.807v10.676a7.5 7.5 0 0015 0v-10.676c0-16.436 13.372-29.807 29.807-29.807 3.225 0 6.372.51 9.358 1.496-18.543 18.453-32.968 41.036-41.779 66.232a7.5 7.5 0 00-11.996 6.925c.756 5.794 2.688 11.436 5.606 16.508a174.783 174.783 0 00-3.345 34.064c0 13.39 1.519 26.432 4.387 38.965a102.191 102.191 0 01-22.995-12.756c-7.261-5.356-16.423-7.29-25.138-5.304l-50.413 11.487a7.5 7.5 0 00-5.646 8.979 7.499 7.499 0 008.979 5.646l50.412-11.487c4.456-1.014 9.157-.012 12.901 2.75 11.217 8.274 23.625 14.411 36.914 18.268a173.645 173.645 0 0010.442 24.23 137.146 137.146 0 01-39.605-12.761c-3.641-1.82-7.778-2.265-11.647-1.251l-29.061 7.601a7.5 7.5 0 003.796 14.512l29.061-7.601c.351-.092.758-.036 1.146.158 17.572 8.782 36.4 14.025 55.991 15.619a175.798 175.798 0 0017.356 21.872c-1.576.042-3.151.07-4.724.07-20.745 0-41.078-3.614-60.434-10.742a7.501 7.501 0 00-5.184 14.076c21.021 7.741 43.099 11.666 65.618 11.666 6.479 0 12.995-.352 19.428-1.007a175.46 175.46 0 0024.885 17.7c-31.907 6.809-65.427 6.171-97.02-1.951a7.5 7.5 0 00-10.521 8.129l.022.126a7.5 7.5 0 005.473 5.936c18.81 4.955 38.234 7.468 57.732 7.468s38.922-2.513 57.732-7.468a7.494 7.494 0 004.345-3.132c21.548 9.53 45.365 14.837 70.402 14.837 37.915 0 73.042-12.152 101.705-32.757l10.002 10.002c1.464 1.464 3.384 2.197 5.303 2.197s3.839-.732 5.303-2.197a7.5 7.5 0 000-10.606l-8.732-8.732a176.173 176.173 0 0018.962-18.962l74.864 74.864c5.228 5.228 5.228 13.734 0 18.962-5.228 5.227-13.734 5.228-18.962 0l-43.53-43.53a7.5 7.5 0 00-10.606 0 7.5 7.5 0 000 10.606l43.53 43.53c5.538 5.538 12.813 8.307 20.087 8.307s14.55-2.769 20.088-8.307c11.078-11.079 11.078-29.101.002-40.177zm-218.013-18.202c-88.024 0-159.636-71.612-159.636-159.636s71.612-159.636 159.636-159.636S446.13 179.938 446.13 267.962s-71.612 159.636-159.636 159.636z"/></svg>