<svg xmlns="http://www.w3.org/2000/svg" height="512.00002pt" version="1.1" viewBox="0 0 512.00002 512.00002" width="512.00002pt">
<g id="surface1">
<path d="M 405.996094 283.992188 C 405.996094 342.726562 358.382812 390.339844 299.648438 390.339844 C 240.914062 390.339844 193.304688 342.726562 193.304688 283.992188 C 193.304688 225.257812 240.914062 177.648438 299.648438 177.648438 C 358.382812 177.648438 405.996094 225.257812 405.996094 283.992188 Z M 405.996094 283.992188 " style=" stroke:none;fill-rule:nonzero;fill:rgb(100%,81.568627%,38.039216%);fill-opacity:1;" />
<path d="M 207.324219 144.242188 L 106.890625 217.210938 L 145.25 335.277344 L 269.394531 335.277344 L 307.753906 217.210938 Z M 207.324219 144.242188 " style=" stroke:none;fill-rule:nonzero;fill:rgb(34.509804%,76.470588%,90.980392%);fill-opacity:1;" />
<path d="M 307.753906 217.210938 L 262.488281 184.324219 C 222.082031 199.398438 193.304688 238.332031 193.304688 283.992188 C 193.304688 302.589844 198.082031 320.070312 206.46875 335.277344 L 269.394531 335.277344 Z M 307.753906 217.210938 " style=" stroke:none;fill-rule:nonzero;fill:rgb(98.039216%,43.921569%,69.803922%);fill-opacity:1;" />
<path d="M 504.394531 434.671875 L 449.878906 434.671875 L 449.878906 77.328125 L 504.394531 77.328125 C 508.597656 77.328125 512 73.921875 512 69.722656 C 512 65.523438 508.597656 62.117188 504.394531 62.117188 L 449.878906 62.117188 L 449.878906 7.605469 C 449.878906 3.40625 446.476562 0 442.277344 0 C 438.078125 0 434.671875 3.40625 434.671875 7.605469 L 434.671875 62.117188 L 77.328125 62.117188 L 77.328125 7.605469 C 77.328125 3.40625 73.921875 0 69.722656 0 C 65.523438 0 62.117188 3.40625 62.117188 7.605469 L 62.117188 62.117188 L 7.605469 62.117188 C 3.402344 62.117188 0 65.523438 0 69.722656 C 0 73.921875 3.402344 77.328125 7.605469 77.328125 L 62.117188 77.328125 L 62.117188 152.582031 C 62.117188 156.78125 65.523438 160.1875 69.722656 160.1875 C 73.921875 160.1875 77.328125 156.78125 77.328125 152.582031 L 77.328125 77.328125 L 434.671875 77.328125 L 434.671875 434.671875 L 77.328125 434.671875 L 77.328125 177.933594 C 77.328125 173.730469 73.921875 170.328125 69.722656 170.328125 C 65.523438 170.328125 62.117188 173.730469 62.117188 177.933594 L 62.117188 434.671875 L 7.605469 434.671875 C 3.402344 434.671875 0 438.078125 0 442.277344 C 0 446.476562 3.402344 449.882812 7.605469 449.882812 L 62.117188 449.882812 L 62.117188 504.394531 C 62.117188 508.59375 65.523438 512 69.722656 512 C 73.921875 512 77.328125 508.59375 77.328125 504.394531 L 77.328125 449.882812 L 434.671875 449.882812 L 434.671875 504.394531 C 434.671875 508.59375 438.078125 512 442.277344 512 C 446.476562 512 449.878906 508.59375 449.878906 504.394531 L 449.878906 449.882812 L 504.394531 449.882812 C 508.597656 449.882812 512 446.476562 512 442.277344 C 512 438.078125 508.597656 434.671875 504.394531 434.671875 Z M 504.394531 434.671875 " style=" stroke:none;fill-rule:nonzero;fill:rgb(0%,0%,0%);fill-opacity:1;" />
<path d="M 338.082031 374.976562 C 334.214844 376.613281 332.402344 381.074219 334.039062 384.941406 C 335.675781 388.8125 340.136719 390.621094 344.003906 388.984375 C 386.28125 371.105469 413.597656 329.890625 413.597656 283.992188 C 413.597656 221.160156 362.480469 170.042969 299.648438 170.042969 C 287.109375 170.042969 275.042969 172.082031 263.75 175.839844 L 211.792969 138.089844 C 209.125 136.15625 205.519531 136.15625 202.851562 138.089844 L 102.421875 211.058594 C 99.753906 212.996094 98.640625 216.425781 99.660156 219.558594 L 138.019531 337.625 C 139.039062 340.757812 141.957031 342.878906 145.25 342.878906 L 202.128906 342.878906 C 222.117188 375.855469 258.351562 397.941406 299.648438 397.941406 C 304.933594 397.941406 310.246094 397.574219 315.445312 396.851562 C 319.605469 396.277344 322.507812 392.433594 321.929688 388.277344 C 321.351562 384.117188 317.511719 381.214844 313.355469 381.789062 C 308.847656 382.414062 304.234375 382.734375 299.648438 382.734375 C 267.25 382.734375 238.453125 367.050781 220.4375 342.878906 L 269.390625 342.878906 C 272.683594 342.878906 275.605469 340.757812 276.621094 337.625 L 314.984375 219.5625 C 316.003906 216.429688 314.886719 212.996094 312.222656 211.058594 L 279.535156 187.308594 C 286.03125 185.960938 292.757812 185.25 299.648438 185.25 C 354.09375 185.25 398.390625 229.542969 398.390625 283.992188 C 398.390625 323.769531 374.71875 359.480469 338.082031 374.976562 Z M 150.777344 327.675781 L 115.828125 220.117188 L 207.324219 153.644531 L 247.390625 182.753906 C 210.777344 201.730469 185.699219 239.984375 185.699219 283.992188 C 185.699219 299.460938 188.800781 314.214844 194.410156 327.675781 Z M 298.816406 220.117188 L 263.867188 327.671875 L 211.109375 327.671875 C 204.585938 314.496094 200.90625 299.664062 200.90625 283.992188 C 200.90625 243.089844 225.90625 207.917969 261.425781 192.949219 Z M 298.816406 220.117188 " style=" stroke:none;fill-rule:nonzero;fill:rgb(0%,0%,0%);fill-opacity:1;" />
</g>
</svg>