<svg xmlns="http://www.w3.org/2000/svg" height="682.667" viewBox="0 0 512 512" width="682.667"><path d="M405.996 283.992c0 58.735-47.613 106.348-106.348 106.348-58.734 0-106.343-47.613-106.343-106.348 0-58.734 47.61-106.344 106.343-106.344 58.735 0 106.348 47.61 106.348 106.344zm0 0" fill="#ffd061"/><path d="M207.324 144.242l-100.433 72.969 38.359 118.066h124.145l38.359-118.066zm0 0" fill="#58c3e8"/><path d="M307.754 217.21l-45.266-32.886c-40.406 15.074-69.183 54.008-69.183 99.668 0 18.598 4.777 36.078 13.164 51.285h62.926zm0 0" fill="#fa70b2"/><path d="M504.395 434.672h-54.516V77.328h54.516A7.604 7.604 0 00512 69.723c0-4.2-3.402-7.606-7.605-7.606h-54.516V7.605a7.604 7.604 0 10-15.207 0v54.512H77.328V7.605A7.606 7.606 0 0069.723 0a7.607 7.607 0 00-7.606 7.605v54.512H7.605A7.604 7.604 0 000 69.723a7.604 7.604 0 007.605 7.605h54.512v75.254a7.607 7.607 0 0015.21 0l.001-75.254h357.344v357.344H77.328V177.934a7.604 7.604 0 00-7.605-7.606 7.604 7.604 0 00-7.606 7.606v256.738H7.605A7.604 7.604 0 000 442.277c0 4.2 3.402 7.606 7.605 7.606h54.512v54.512a7.607 7.607 0 0015.21 0l.001-54.512h357.344v54.512a7.604 7.604 0 1015.207 0v-54.512h54.516a7.604 7.604 0 007.605-7.606 7.604 7.604 0 00-7.605-7.605zm0 0"/><path d="M338.082 374.977c-3.867 1.636-5.68 6.097-4.043 9.964a7.601 7.601 0 009.965 4.043c42.277-17.879 69.594-59.093 69.594-104.992 0-62.832-51.118-113.949-113.95-113.949a113.48 113.48 0 00-35.898 5.797l-51.957-37.75a7.616 7.616 0 00-8.941 0l-100.43 72.969a7.596 7.596 0 00-2.762 8.5l38.36 118.066a7.605 7.605 0 007.23 5.254h56.879c19.988 32.976 56.223 55.062 97.52 55.062 5.285 0 10.597-.367 15.796-1.09a7.599 7.599 0 006.485-8.574 7.607 7.607 0 00-8.575-6.488c-4.507.625-9.12.945-13.707.945-32.398 0-61.195-15.683-79.21-39.855h48.953a7.601 7.601 0 007.23-5.254l38.363-118.063a7.607 7.607 0 00-2.761-8.503l-32.688-23.75a98.93 98.93 0 0120.113-2.059c54.446 0 98.743 44.293 98.743 98.742 0 39.778-23.672 75.488-60.309 90.985zm-187.305-47.301l-34.949-107.559 91.496-66.472 40.067 29.109c-36.614 18.976-61.692 57.23-61.692 101.238 0 15.469 3.102 30.223 8.711 43.684zm148.04-107.559l-34.95 107.555H211.11a98.196 98.196 0 01-10.203-43.68c0-40.902 25-76.074 60.52-91.043zm0 0"/></svg>