<svg height="512" width="512" xmlns="http://www.w3.org/2000/svg"><path d="M55.04 122h401.92v302.14H55.04z" fill="#465a61"/><path d="M476.188 504.5H35.812c-6.713 0-12.155-5.442-12.155-12.155V371.733c0-6.713 5.442-12.155 12.155-12.155h440.377c6.713 0 12.155 5.442 12.155 12.155v120.613c-.001 6.712-5.443 12.154-12.156 12.154z" fill="#7a8c98"/><path d="M281.618 453.543H76.545c-11.877 0-21.505-9.628-21.505-21.505 0-11.877 9.628-21.505 21.505-21.505h205.073c11.877 0 21.505 9.628 21.505 21.505-.001 11.878-9.629 21.505-21.505 21.505z" fill="#9facba"/><path d="M373.345 468.503c-9.264 0-16.774-7.51-16.774-16.774v-39.38c0-9.264 7.51-16.774 16.774-16.774 9.264 0 16.774 7.51 16.774 16.774v39.38c0 9.264-7.51 16.774-16.774 16.774z" fill="#ffd15b"/><path d="M476.188 329.149H35.812c-6.713 0-12.155-5.442-12.155-12.155V196.381c0-6.713 5.442-12.155 12.155-12.155h440.377c6.713 0 12.155 5.442 12.155 12.155v120.613c-.001 6.713-5.443 12.155-12.156 12.155z" fill="#7a8c98"/><path d="M281.618 278.192H76.545c-11.877 0-21.505-9.628-21.505-21.505 0-11.877 9.628-21.505 21.505-21.505h205.073c11.877 0 21.505 9.628 21.505 21.505-.001 11.877-9.629 21.505-21.505 21.505z" fill="#9facba"/><path d="M373.345 293.152c-9.264 0-16.774-7.51-16.774-16.774v-39.38c0-9.264 7.51-16.774 16.774-16.774 9.264 0 16.774 7.51 16.774 16.774v39.38c0 9.264-7.51 16.774-16.774 16.774z" fill="#60b7ff"/><path d="M476.188 152.422H35.812c-6.713 0-12.155-5.442-12.155-12.155V19.655c0-6.713 5.442-12.155 12.155-12.155h440.377c6.713 0 12.155 5.442 12.155 12.155v120.613c-.001 6.712-5.443 12.154-12.156 12.154z" fill="#7a8c98"/><path d="M281.618 101.466H76.545c-11.877 0-21.505-9.628-21.505-21.505 0-11.877 9.628-21.505 21.505-21.505h205.073c11.877 0 21.505 9.628 21.505 21.505-.001 11.877-9.629 21.505-21.505 21.505z" fill="#9facba"/><path d="M373.345 116.425c-9.264 0-16.774-7.51-16.774-16.774v-39.38c0-9.264 7.51-16.774 16.774-16.774 9.264 0 16.774 7.51 16.774 16.774v39.38c0 9.264-7.51 16.774-16.774 16.774z" fill="#60b7ff"/><path d="M476.188 359.578h-38.522c6.713 0 12.155 5.442 12.155 12.155v120.613c0 6.713-5.442 12.155-12.155 12.155h38.522c6.713 0 12.155-5.442 12.155-12.155V371.733c0-6.713-5.442-12.155-12.155-12.155zm0-175.352h-38.522c6.713 0 12.155 5.442 12.155 12.155v120.613c0 6.713-5.442 12.155-12.155 12.155h38.522c6.713 0 12.155-5.442 12.155-12.155V196.381c0-6.713-5.442-12.155-12.155-12.155zm0-176.726h-38.522c6.713 0 12.155 5.442 12.155 12.155v120.613c0 6.713-5.442 12.155-12.155 12.155h38.522c6.713 0 12.155-5.442 12.155-12.155V19.655c0-6.713-5.442-12.155-12.155-12.155z" fill="#596c76"/><path d="M440.186 43.497c-.348 0-.688.031-1.031.052-8.781.535-15.743 7.806-15.743 16.722v39.38c0 8.916 6.962 16.187 15.743 16.722.343.021.683.052 1.031.052 9.264 0 16.774-7.51 16.774-16.774v-39.38c0-9.264-7.51-16.774-16.774-16.774z" fill="#ffd15b"/><path d="M449.821 46.553v66.816c4.313-3.035 7.139-8.043 7.139-13.718v-39.38c0-5.675-2.826-10.682-7.139-13.718z" fill="#ffc344"/><path d="M440.186 220.223c-.348 0-.688.031-1.031.052-8.781.535-15.743 7.806-15.743 16.722v39.38c0 8.916 6.962 16.187 15.743 16.722.343.021.683.052 1.031.052 9.264 0 16.774-7.51 16.774-16.774v-39.38c0-9.264-7.51-16.774-16.774-16.774z" fill="#fe646f"/><path d="M449.821 223.28v66.816c4.313-3.035 7.139-8.042 7.139-13.718v-39.38c0-5.676-2.826-10.683-7.139-13.718z" fill="#fd4755"/><path d="M440.186 395.575c-.348 0-.688.031-1.031.052-8.781.535-15.743 7.806-15.743 16.722v39.38c0 8.916 6.962 16.187 15.743 16.722.343.021.683.052 1.031.052 9.264 0 16.774-7.51 16.774-16.774v-39.38c0-9.264-7.51-16.774-16.774-16.774z" fill="#60b7ff"/><path d="M449.821 398.631v66.816c4.313-3.035 7.139-8.042 7.139-13.718v-39.38c0-5.675-2.826-10.683-7.139-13.718z" fill="#26a6fe"/><path d="M76.545 403.034c-15.993 0-29.005 13.012-29.005 29.005s13.012 29.005 29.005 29.005h205.072c15.993 0 29.005-13.012 29.005-29.005s-13.012-29.005-29.005-29.005zm219.077 29.005c0 7.723-6.282 14.005-14.005 14.005H76.545c-7.723 0-14.005-6.282-14.005-14.005s6.282-14.005 14.005-14.005h205.072c7.723 0 14.005 6.282 14.005 14.005zm53.448-19.69v39.381c0 13.385 10.89 24.273 24.274 24.273s24.274-10.889 24.274-24.273v-39.381c0-13.385-10.89-24.274-24.274-24.274s-24.274 10.889-24.274 24.274zm33.549 0v39.381c0 5.113-4.16 9.273-9.274 9.273s-9.274-4.16-9.274-9.273v-39.381c0-5.114 4.16-9.274 9.274-9.274s9.274 4.159 9.274 9.274zm33.293 0v39.381c0 13.385 10.889 24.273 24.273 24.273s24.274-10.889 24.274-24.273v-39.381c0-13.385-10.89-24.274-24.274-24.274s-24.273 10.889-24.273 24.274zm33.548 0v39.381c0 5.113-4.16 9.273-9.274 9.273-5.113 0-9.273-4.16-9.273-9.273v-39.381c0-5.114 4.16-9.274 9.273-9.274 5.114-.001 9.274 4.159 9.274 9.274zM281.617 227.683H76.545c-15.993 0-29.005 13.012-29.005 29.005s13.012 29.005 29.005 29.005h205.072c15.993 0 29.005-13.012 29.005-29.005s-13.012-29.005-29.005-29.005zm0 43.009H76.545c-7.723 0-14.005-6.282-14.005-14.005s6.282-14.005 14.005-14.005h205.072c7.723 0 14.005 6.282 14.005 14.005s-6.282 14.005-14.005 14.005zm91.728-57.969c-13.385 0-24.274 10.89-24.274 24.274v39.381c0 13.385 10.89 24.273 24.274 24.273s24.274-10.889 24.274-24.273v-39.381c0-13.385-10.89-24.274-24.274-24.274zm9.274 63.655c0 5.113-4.16 9.273-9.274 9.273s-9.274-4.16-9.274-9.273v-39.381c0-5.114 4.16-9.274 9.274-9.274s9.274 4.16 9.274 9.274zm33.293-39.381v39.381c0 13.385 10.889 24.273 24.273 24.273s24.274-10.889 24.274-24.273v-39.381c0-13.385-10.89-24.274-24.274-24.274s-24.273 10.889-24.273 24.274zm33.548 0v39.381c0 5.113-4.16 9.273-9.274 9.273-5.113 0-9.273-4.16-9.273-9.273v-39.381c0-5.114 4.16-9.274 9.273-9.274 5.114 0 9.274 4.16 9.274 9.274z"/><path d="M476.188 159.922c10.838 0 19.654-8.816 19.654-19.654V19.654C495.843 8.816 487.026 0 476.188 0H35.812C24.974 0 16.157 8.816 16.157 19.654v34.09c0 4.143 3.357 7.5 7.5 7.5s7.5-3.357 7.5-7.5v-34.09A4.66 4.66 0 0135.811 15h440.377a4.66 4.66 0 014.654 4.654v120.613a4.66 4.66 0 01-4.654 4.654H35.811a4.66 4.66 0 01-4.654-4.654V88.744c0-4.143-3.357-7.5-7.5-7.5s-7.5 3.357-7.5 7.5v51.523c0 10.838 8.816 19.654 19.654 19.654H47.54v16.805H35.812c-10.838 0-19.654 8.816-19.654 19.654v120.613c0 10.838 8.816 19.654 19.654 19.654H47.54v15.43H35.812c-10.838 0-19.654 8.816-19.654 19.654v120.613c0 10.838 8.816 19.654 19.654 19.654h440.377c10.838 0 19.654-8.816 19.654-19.654v-43.523c0-4.143-3.357-7.5-7.5-7.5s-7.5 3.357-7.5 7.5v43.523a4.66 4.66 0 01-4.654 4.654H35.812a4.66 4.66 0 01-4.654-4.654V371.732a4.66 4.66 0 014.654-4.654h440.377a4.66 4.66 0 014.654 4.654v42.09c0 4.143 3.357 7.5 7.5 7.5s7.5-3.357 7.5-7.5v-42.09c0-10.838-8.816-19.654-19.654-19.654H464.46v-15.43h11.729c10.838 0 19.654-8.816 19.654-19.654V196.381c0-10.838-8.816-19.654-19.654-19.654H464.46v-16.805zM449.46 352.078H62.54v-15.43h386.92zm31.383-155.697v120.613a4.66 4.66 0 01-4.654 4.654H35.812a4.66 4.66 0 01-4.654-4.654V196.381a4.66 4.66 0 014.654-4.654h440.377a4.659 4.659 0 014.654 4.654zm-31.383-19.654H62.54v-16.805h386.92z"/><path d="M76.545 108.966h205.072c15.993 0 29.005-13.012 29.005-29.005s-13.012-29.005-29.005-29.005H76.545c-15.993 0-29.005 13.012-29.005 29.005s13.012 29.005 29.005 29.005zm0-43.01h205.072c7.723 0 14.005 6.282 14.005 14.005s-6.282 14.005-14.005 14.005H76.545c-7.723 0-14.005-6.282-14.005-14.005s6.282-14.005 14.005-14.005zm321.074 33.695v-39.38c0-13.385-10.89-24.273-24.274-24.273S349.07 46.886 349.07 60.271v39.381c0 13.385 10.89 24.274 24.274 24.274s24.275-10.89 24.275-24.275zm-33.549 0v-39.38c0-5.113 4.16-9.273 9.274-9.273s9.274 4.16 9.274 9.273v39.381c0 5.114-4.16 9.274-9.274 9.274s-9.274-4.16-9.274-9.275zm100.39 0v-39.38c0-13.385-10.89-24.273-24.274-24.273s-24.273 10.889-24.273 24.273v39.381c0 13.385 10.889 24.274 24.273 24.274s24.274-10.89 24.274-24.275zm-33.548 0v-39.38c0-5.113 4.16-9.273 9.273-9.273 5.114 0 9.274 4.16 9.274 9.273v39.381c0 5.114-4.16 9.274-9.274 9.274-5.113 0-9.273-4.16-9.273-9.275z"/></svg>